<svg xmlns="http://www.w3.org/2000/svg" xmlns:xlink="http://www.w3.org/1999/xlink" width="2048" zoomAndPan="magnify" viewBox="0 0 1536 1535.999932" height="2048" preserveAspectRatio="xMidYMid meet" version="1.0"><defs><clipPath id="640ad56a49"><path d="M 0 1532.109375 L 399 1532.109375 L 399 1536 L 0 1536 Z M 0 1532.109375 " clip-rule="nonzero"/></clipPath><clipPath id="338b045fce"><path d="M 481 169 L 1054.746094 169 L 1054.746094 1381 L 481 1381 Z M 481 169 " clip-rule="nonzero"/></clipPath></defs><g clip-path="url(#640ad56a49)"><path fill="#000000" d="M 385.339844 2041.230469 L 268.425781 1924.285156 L 244.238281 1900.089844 C 241.632812 1897.484375 237.019531 1897.484375 234.414062 1900.089844 L 230.734375 1903.773438 C 230.390625 1902.964844 229.914062 1902.203125 229.253906 1901.542969 L 199.484375 1871.75 C 225.871094 1835.484375 240.144531 1791.925781 240.144531 1746.113281 C 240.144531 1688.886719 217.929688 1635.136719 177.574219 1594.78125 C 137.226562 1554.429688 83.503906 1532.207031 26.300781 1532.207031 C -30.90625 1532.207031 -84.640625 1554.4375 -124.992188 1594.796875 C -208.402344 1678.234375 -208.402344 1814.003906 -124.992188 1897.457031 C -84.636719 1937.808594 -30.90625 1960.03125 26.296875 1960.03125 C 72.097656 1960.03125 115.640625 1945.75 151.898438 1919.359375 L 181.671875 1949.15625 C 182.332031 1949.816406 183.089844 1950.296875 183.894531 1950.636719 L 180.25 1954.292969 C 177.53125 1957.007812 177.53125 1961.402344 180.25 1964.117188 L 205.367188 1989.253906 L 321.328125 2105.265625 C 329.875 2113.820312 341.246094 2118.53125 353.335938 2118.53125 C 365.421875 2118.53125 376.792969 2113.820312 385.339844 2105.265625 C 402.984375 2087.59375 402.984375 2058.875 385.339844 2041.230469 Z M -115.179688 1887.617188 C -193.175781 1809.585938 -193.175781 1682.632812 -115.179688 1604.609375 C -77.453125 1566.875 -27.210938 1546.089844 26.289062 1546.089844 C 79.78125 1546.089844 130.019531 1566.867188 167.738281 1604.59375 C 205.464844 1642.328125 226.238281 1692.582031 226.238281 1746.097656 C 226.238281 1799.613281 205.464844 1849.867188 167.738281 1887.59375 C 130.015625 1925.328125 79.78125 1946.105469 26.28125 1946.105469 C -27.203125 1946.121094 -77.453125 1925.339844 -115.179688 1887.617188 Z M 191.488281 1939.316406 L 162.945312 1910.75 C 167.988281 1906.550781 172.878906 1902.132812 177.566406 1897.433594 C 182.257812 1892.738281 186.6875 1887.84375 190.882812 1882.804688 L 219.421875 1911.367188 C 220.082031 1912.027344 220.839844 1912.515625 221.652344 1912.847656 L 192.960938 1941.546875 C 192.628906 1940.742188 192.148438 1939.976562 191.488281 1939.316406 Z M 239.328125 1914.828125 L 253.839844 1929.34375 L 210.128906 1974.351562 L 194.976562 1959.191406 Z M 375.515625 2095.433594 C 369.582031 2101.359375 361.710938 2104.628906 353.335938 2104.628906 C 344.957031 2104.628906 337.078125 2101.359375 331.152344 2095.433594 L 219.957031 1984.179688 L 263.667969 1939.164062 L 375.523438 2051.058594 C 387.742188 2063.289062 387.742188 2083.191406 375.515625 2095.433594 Z M 375.515625 2095.433594 " fill-opacity="1" fill-rule="nonzero"/></g><g clip-path="url(#338b045fce)"><path fill="#ffffff" d="M 922.382812 369.089844 L 1054.746094 369.089844 L 1054.746094 169.410156 L 885.726562 169.410156 L 885.726562 170.175781 C 663.507812 178.324219 617.691406 302.871094 613.871094 434.546875 L 613.363281 434.546875 L 613.363281 573.101562 L 481 573.101562 L 481 773.039062 L 613.363281 773.039062 L 613.363281 1380.742188 L 850.855469 1380.742188 L 850.855469 773.039062 L 1021.148438 773.039062 L 1054.75 573.101562 L 850.855469 573.101562 L 850.855469 449.066406 C 850.855469 405.003906 880.382812 369.089844 922.382812 369.089844 Z M 922.382812 369.089844 " fill-opacity="1" fill-rule="nonzero"/></g></svg>