<svg xmlns="http://www.w3.org/2000/svg" xmlns:xlink="http://www.w3.org/1999/xlink" width="2048" zoomAndPan="magnify" viewBox="0 0 1536 1535.999932" height="2048" preserveAspectRatio="xMidYMid meet" version="1.0"><defs><clipPath id="45193496e6"><path d="M 0 1532.109375 L 399 1532.109375 L 399 1536 L 0 1536 Z M 0 1532.109375 " clip-rule="nonzero"/></clipPath><clipPath id="c5c1fdc175"><path d="M 78.746094 78.746094 L 1457.246094 78.746094 L 1457.246094 1457.246094 L 78.746094 1457.246094 Z M 78.746094 78.746094 " clip-rule="nonzero"/></clipPath></defs><g clip-path="url(#45193496e6)"><path fill="#000000" d="M 385.339844 2041.230469 L 268.425781 1924.285156 L 244.238281 1900.089844 C 241.632812 1897.484375 237.019531 1897.484375 234.414062 1900.089844 L 230.734375 1903.773438 C 230.390625 1902.964844 229.914062 1902.203125 229.253906 1901.542969 L 199.484375 1871.75 C 225.871094 1835.484375 240.144531 1791.925781 240.144531 1746.113281 C 240.144531 1688.886719 217.929688 1635.136719 177.574219 1594.78125 C 137.226562 1554.429688 83.503906 1532.207031 26.300781 1532.207031 C -30.90625 1532.207031 -84.640625 1554.4375 -124.992188 1594.796875 C -208.402344 1678.234375 -208.402344 1814.003906 -124.992188 1897.457031 C -84.636719 1937.808594 -30.90625 1960.03125 26.296875 1960.03125 C 72.097656 1960.03125 115.640625 1945.75 151.898438 1919.359375 L 181.671875 1949.15625 C 182.332031 1949.816406 183.089844 1950.296875 183.894531 1950.636719 L 180.25 1954.292969 C 177.53125 1957.007812 177.53125 1961.402344 180.25 1964.117188 L 205.367188 1989.253906 L 321.328125 2105.265625 C 329.875 2113.820312 341.246094 2118.53125 353.335938 2118.53125 C 365.421875 2118.53125 376.792969 2113.820312 385.339844 2105.265625 C 402.984375 2087.59375 402.984375 2058.875 385.339844 2041.230469 Z M -115.179688 1887.617188 C -193.175781 1809.585938 -193.175781 1682.632812 -115.179688 1604.609375 C -77.453125 1566.875 -27.210938 1546.089844 26.289062 1546.089844 C 79.78125 1546.089844 130.019531 1566.867188 167.738281 1604.59375 C 205.464844 1642.328125 226.238281 1692.582031 226.238281 1746.097656 C 226.238281 1799.613281 205.464844 1849.867188 167.738281 1887.59375 C 130.015625 1925.328125 79.78125 1946.105469 26.28125 1946.105469 C -27.203125 1946.121094 -77.453125 1925.339844 -115.179688 1887.617188 Z M 191.488281 1939.316406 L 162.945312 1910.75 C 167.988281 1906.550781 172.878906 1902.132812 177.566406 1897.433594 C 182.257812 1892.738281 186.6875 1887.84375 190.882812 1882.804688 L 219.421875 1911.367188 C 220.082031 1912.027344 220.839844 1912.515625 221.652344 1912.847656 L 192.960938 1941.546875 C 192.628906 1940.742188 192.148438 1939.976562 191.488281 1939.316406 Z M 239.328125 1914.828125 L 253.839844 1929.34375 L 210.128906 1974.351562 L 194.976562 1959.191406 Z M 375.515625 2095.433594 C 369.582031 2101.359375 361.710938 2104.628906 353.335938 2104.628906 C 344.957031 2104.628906 337.078125 2101.359375 331.152344 2095.433594 L 219.957031 1984.179688 L 263.667969 1939.164062 L 375.523438 2051.058594 C 387.742188 2063.289062 387.742188 2083.191406 375.515625 2095.433594 Z M 375.515625 2095.433594 " fill-opacity="1" fill-rule="nonzero"/></g><g clip-path="url(#c5c1fdc175)"><path fill="#000000" d="M 767.996094 78.746094 C 387.265625 78.746094 78.746094 387.265625 78.746094 767.996094 C 78.746094 1148.722656 387.265625 1457.246094 767.996094 1457.246094 C 1148.722656 1457.246094 1457.246094 1148.722656 1457.246094 767.996094 C 1456.648438 387.265625 1148.128906 78.746094 767.996094 78.746094 Z M 1170.207031 612.839844 C 1170.207031 612.839844 1182.140625 876.605469 981.632812 1040.113281 C 681.464844 1284.1875 357.429688 1086.066406 357.429688 1086.066406 C 357.429688 1086.066406 436.199219 1087.257812 506.019531 1068.757812 C 575.246094 1050.257812 625.371094 1004.90625 625.371094 1004.90625 C 625.371094 1004.90625 549.582031 989.390625 510.199219 960.746094 C 470.8125 932.101562 455.296875 877.203125 455.296875 877.203125 C 455.296875 877.203125 481.554688 879.589844 497.667969 878.992188 C 514.375 878.394531 534.066406 870.636719 534.066406 870.636719 C 534.066406 870.636719 479.765625 864.074219 429.039062 807.382812 C 389.058594 762.625 392.039062 688.03125 392.039062 688.03125 C 392.039062 688.03125 415.910156 702.351562 428.441406 705.335938 C 440.976562 708.917969 465.441406 708.917969 465.441406 708.917969 C 465.441406 708.917969 417.703125 680.871094 396.816406 607.46875 C 375.929688 534.664062 415.910156 460.667969 415.910156 460.667969 C 415.910156 460.667969 486.925781 546.601562 591.953125 601.5 C 696.980469 656.402344 796.042969 654.613281 796.042969 654.613281 C 796.042969 654.613281 781.722656 611.050781 806.785156 546.601562 C 831.847656 482.152344 888.539062 435.605469 975.070312 429.039062 C 1061.597656 421.878906 1117.097656 487.519531 1117.097656 487.519531 C 1117.097656 487.519531 1143.949219 482.746094 1174.382812 471.410156 C 1204.820312 460.667969 1235.253906 446.34375 1235.253906 446.34375 C 1235.253906 446.34375 1224.511719 479.167969 1203.625 504.828125 C 1182.738281 530.488281 1159.464844 546.003906 1159.464844 546.003906 C 1159.464844 546.003906 1186.917969 544.214844 1214.367188 536.457031 C 1241.816406 528.699219 1256.738281 520.941406 1256.738281 520.941406 C 1225.109375 573.453125 1170.207031 612.839844 1170.207031 612.839844 Z M 1170.207031 612.839844 " fill-opacity="1" fill-rule="nonzero"/></g></svg>