<svg xmlns="http://www.w3.org/2000/svg" xmlns:xlink="http://www.w3.org/1999/xlink" width="2048" zoomAndPan="magnify" viewBox="0 0 1536 1535.999932" height="2048" preserveAspectRatio="xMidYMid meet" version="1.0"><defs><clipPath id="4d6469924a"><path d="M 0 1532.109375 L 399 1532.109375 L 399 1536 L 0 1536 Z M 0 1532.109375 " clip-rule="nonzero"/></clipPath></defs><g clip-path="url(#4d6469924a)"><path fill="#000000" d="M 385.339844 2041.230469 L 268.425781 1924.285156 L 244.238281 1900.089844 C 241.632812 1897.484375 237.019531 1897.484375 234.414062 1900.089844 L 230.734375 1903.773438 C 230.390625 1902.964844 229.914062 1902.203125 229.253906 1901.542969 L 199.484375 1871.75 C 225.871094 1835.484375 240.144531 1791.925781 240.144531 1746.113281 C 240.144531 1688.886719 217.929688 1635.136719 177.574219 1594.78125 C 137.226562 1554.429688 83.503906 1532.207031 26.300781 1532.207031 C -30.90625 1532.207031 -84.640625 1554.4375 -124.992188 1594.796875 C -208.402344 1678.234375 -208.402344 1814.003906 -124.992188 1897.457031 C -84.636719 1937.808594 -30.90625 1960.03125 26.296875 1960.03125 C 72.097656 1960.03125 115.640625 1945.75 151.898438 1919.359375 L 181.671875 1949.15625 C 182.332031 1949.816406 183.089844 1950.296875 183.894531 1950.636719 L 180.25 1954.292969 C 177.53125 1957.007812 177.53125 1961.402344 180.25 1964.117188 L 205.367188 1989.253906 L 321.328125 2105.265625 C 329.875 2113.820312 341.246094 2118.53125 353.335938 2118.53125 C 365.421875 2118.53125 376.792969 2113.820312 385.339844 2105.265625 C 402.984375 2087.59375 402.984375 2058.875 385.339844 2041.230469 Z M -115.179688 1887.617188 C -193.175781 1809.585938 -193.175781 1682.632812 -115.179688 1604.609375 C -77.453125 1566.875 -27.210938 1546.089844 26.289062 1546.089844 C 79.78125 1546.089844 130.019531 1566.867188 167.738281 1604.59375 C 205.464844 1642.328125 226.238281 1692.582031 226.238281 1746.097656 C 226.238281 1799.613281 205.464844 1849.867188 167.738281 1887.59375 C 130.015625 1925.328125 79.78125 1946.105469 26.28125 1946.105469 C -27.203125 1946.121094 -77.453125 1925.339844 -115.179688 1887.617188 Z M 191.488281 1939.316406 L 162.945312 1910.75 C 167.988281 1906.550781 172.878906 1902.132812 177.566406 1897.433594 C 182.257812 1892.738281 186.6875 1887.84375 190.882812 1882.804688 L 219.421875 1911.367188 C 220.082031 1912.027344 220.839844 1912.515625 221.652344 1912.847656 L 192.960938 1941.546875 C 192.628906 1940.742188 192.148438 1939.976562 191.488281 1939.316406 Z M 239.328125 1914.828125 L 253.839844 1929.34375 L 210.128906 1974.351562 L 194.976562 1959.191406 Z M 375.515625 2095.433594 C 369.582031 2101.359375 361.710938 2104.628906 353.335938 2104.628906 C 344.957031 2104.628906 337.078125 2101.359375 331.152344 2095.433594 L 219.957031 1984.179688 L 263.667969 1939.164062 L 375.523438 2051.058594 C 387.742188 2063.289062 387.742188 2083.191406 375.515625 2095.433594 Z M 375.515625 2095.433594 " fill-opacity="1" fill-rule="nonzero"/></g><path fill="#ffffff" d="M 767.523438 87.015625 C 389.613281 88.289062 87.574219 395.566406 92.511719 773.445312 C 92.625 782.933594 92.933594 792.414062 93.449219 801.890625 C 93.960938 811.363281 94.671875 820.824219 95.582031 830.269531 C 96.492188 839.714844 97.601562 849.136719 98.914062 858.535156 C 100.222656 867.933594 101.726562 877.300781 103.433594 886.636719 C 105.136719 895.96875 107.035156 905.265625 109.132812 914.519531 C 111.230469 923.773438 113.519531 932.980469 116.003906 942.136719 C 118.492188 951.296875 121.167969 960.398438 124.035156 969.441406 C 126.90625 978.488281 129.964844 987.464844 133.210938 996.382812 C 136.460938 1005.296875 139.894531 1014.140625 143.515625 1022.914062 C 147.136719 1031.683594 150.941406 1040.375 154.929688 1048.984375 C 158.917969 1057.59375 163.085938 1066.117188 167.433594 1074.550781 C 171.785156 1082.984375 176.308594 1091.324219 181.007812 1099.566406 C 185.707031 1107.8125 190.578125 1115.953125 195.621094 1123.988281 C 200.664062 1132.027344 205.875 1139.953125 211.253906 1147.773438 C 216.632812 1155.589844 222.171875 1163.292969 227.875 1170.875 C 233.578125 1178.460938 239.4375 1185.917969 245.457031 1193.257812 C 246.402344 1194.414062 247.300781 1195.605469 248.15625 1196.828125 C 249.011719 1198.054688 249.820312 1199.308594 250.582031 1200.59375 C 251.34375 1201.878906 252.058594 1203.1875 252.722656 1204.527344 C 253.386719 1205.867188 254 1207.226562 254.5625 1208.609375 C 255.125 1209.996094 255.632812 1211.398438 256.089844 1212.820312 C 256.546875 1214.242188 256.953125 1215.679688 257.300781 1217.128906 C 257.652344 1218.582031 257.949219 1220.046875 258.1875 1221.519531 C 258.429688 1222.996094 258.613281 1224.476562 258.746094 1225.964844 C 258.875 1227.453125 258.949219 1228.941406 258.96875 1230.4375 C 258.988281 1231.929688 258.949219 1233.421875 258.859375 1234.914062 C 258.765625 1236.402344 258.617188 1237.890625 258.414062 1239.371094 C 258.210938 1240.847656 257.949219 1242.320312 257.636719 1243.78125 C 257.324219 1245.242188 256.957031 1246.6875 256.535156 1248.121094 C 256.113281 1249.554688 255.640625 1250.96875 255.113281 1252.367188 C 254.585938 1253.765625 254.007812 1255.140625 253.375 1256.496094 C 252.746094 1257.847656 252.066406 1259.179688 251.335938 1260.480469 L 192.984375 1365.050781 C 176.808594 1394.039062 203.167969 1428.316406 235.339844 1420.125 L 432.976562 1369.804688 C 436.398438 1368.9375 439.867188 1368.375 443.386719 1368.117188 C 446.90625 1367.859375 450.417969 1367.910156 453.929688 1368.269531 C 457.441406 1368.628906 460.890625 1369.292969 464.285156 1370.257812 C 467.675781 1371.226562 470.960938 1372.484375 474.132812 1374.027344 C 495.921875 1384.613281 518.214844 1393.996094 541.015625 1402.175781 C 563.8125 1410.359375 586.984375 1417.292969 610.53125 1422.976562 C 634.078125 1428.660156 657.863281 1433.0625 681.886719 1436.179688 C 705.90625 1439.300781 730.027344 1441.121094 754.242188 1441.640625 C 1134.195312 1450.230469 1446.066406 1146.625 1447.25 766.578125 C 1448.425781 390.6875 1143.429688 85.75 767.523438 87.015625 Z M 769.855469 1358.347656 C 760.132812 1358.347656 750.421875 1358.109375 740.710938 1357.632812 C 731.003906 1357.15625 721.3125 1356.441406 711.640625 1355.488281 C 701.964844 1354.535156 692.320312 1353.34375 682.707031 1351.917969 C 673.09375 1350.492188 663.519531 1348.832031 653.984375 1346.9375 C 644.453125 1345.039062 634.96875 1342.910156 625.542969 1340.550781 C 616.113281 1338.1875 606.746094 1335.597656 597.445312 1332.773438 C 588.144531 1329.953125 578.917969 1326.90625 569.765625 1323.628906 C 560.613281 1320.355469 551.546875 1316.859375 542.566406 1313.140625 C 533.585938 1309.417969 524.703125 1305.480469 515.917969 1301.324219 C 507.128906 1297.171875 498.449219 1292.800781 489.878906 1288.21875 C 481.304688 1283.636719 472.851562 1278.847656 464.515625 1273.851562 C 456.175781 1268.855469 447.96875 1263.65625 439.886719 1258.253906 C 431.804688 1252.855469 423.859375 1247.257812 416.050781 1241.46875 C 408.242188 1235.679688 400.582031 1229.699219 393.070312 1223.535156 C 385.554688 1217.367188 378.199219 1211.019531 370.996094 1204.492188 C 363.792969 1197.964844 356.753906 1191.265625 349.882812 1184.390625 C 343.007812 1177.519531 336.308594 1170.480469 329.78125 1163.277344 C 323.253906 1156.078125 316.90625 1148.71875 310.738281 1141.207031 C 304.574219 1133.691406 298.59375 1126.03125 292.804688 1118.222656 C 287.015625 1110.417969 281.417969 1102.472656 276.019531 1094.390625 C 270.617188 1086.308594 265.421875 1078.097656 260.421875 1069.761719 C 255.425781 1061.421875 250.636719 1052.96875 246.054688 1044.394531 C 241.472656 1035.824219 237.101562 1027.144531 232.949219 1018.355469 C 228.792969 1009.570312 224.855469 1000.6875 221.132812 991.707031 C 217.414062 982.726562 213.917969 973.660156 210.640625 964.507812 C 207.367188 955.355469 204.320312 946.128906 201.496094 936.828125 C 198.675781 927.523438 196.085938 918.160156 193.722656 908.730469 C 191.359375 899.300781 189.230469 889.820312 187.335938 880.289062 C 185.4375 870.753906 183.777344 861.179688 182.351562 851.5625 C 180.925781 841.949219 179.734375 832.304688 178.785156 822.632812 C 177.832031 812.957031 177.117188 803.265625 176.640625 793.558594 C 176.160156 783.851562 175.921875 774.136719 175.921875 764.414062 C 175.921875 436.402344 441.839844 170.484375 769.855469 170.484375 C 1096.601562 170.484375 1361.71875 434.339844 1363.773438 760.597656 C 1365.839844 1087.957031 1097.226562 1358.347656 769.855469 1358.347656 Z M 769.855469 1358.347656 " fill-opacity="1" fill-rule="nonzero"/><path fill="#000000" d="M 1363.785156 764.414062 C 1363.785156 774.136719 1363.546875 783.847656 1363.070312 793.558594 C 1362.59375 803.265625 1361.878906 812.957031 1360.925781 822.628906 C 1359.972656 832.304688 1358.785156 841.949219 1357.355469 851.5625 C 1355.929688 861.175781 1354.269531 870.75 1352.375 880.285156 C 1350.476562 889.816406 1348.347656 899.300781 1345.984375 908.726562 C 1343.625 918.15625 1341.03125 927.523438 1338.210938 936.824219 C 1335.390625 946.125 1332.339844 955.351562 1329.066406 964.503906 C 1325.792969 973.65625 1322.292969 982.722656 1318.574219 991.703125 C 1314.855469 1000.683594 1310.917969 1009.566406 1306.761719 1018.351562 C 1302.605469 1027.140625 1298.238281 1035.820312 1293.65625 1044.390625 C 1289.074219 1052.964844 1284.28125 1061.417969 1279.285156 1069.757812 C 1274.289062 1078.09375 1269.089844 1086.304688 1263.691406 1094.386719 C 1258.289062 1102.46875 1252.695312 1110.410156 1246.90625 1118.21875 C 1241.113281 1126.027344 1235.136719 1133.6875 1228.96875 1141.199219 C 1222.804688 1148.714844 1216.457031 1156.074219 1209.929688 1163.273438 C 1203.402344 1170.476562 1196.699219 1177.515625 1189.828125 1184.386719 C 1182.953125 1191.261719 1175.917969 1197.960938 1168.714844 1204.488281 C 1161.511719 1211.015625 1154.152344 1217.363281 1146.640625 1223.53125 C 1139.125 1229.695312 1131.464844 1235.675781 1123.660156 1241.464844 C 1115.851562 1247.253906 1107.90625 1252.851562 1099.824219 1258.25 C 1091.742188 1263.652344 1083.53125 1268.847656 1075.195312 1273.847656 C 1066.859375 1278.84375 1058.402344 1283.632812 1049.832031 1288.214844 C 1041.257812 1292.796875 1032.578125 1297.167969 1023.792969 1301.320312 C 1015.003906 1305.476562 1006.121094 1309.414062 997.140625 1313.136719 C 988.160156 1316.855469 979.09375 1320.351562 969.945312 1323.628906 C 960.792969 1326.902344 951.566406 1329.949219 942.261719 1332.773438 C 932.960938 1335.59375 923.597656 1338.183594 914.167969 1340.546875 C 904.738281 1342.910156 895.257812 1345.039062 885.722656 1346.933594 C 876.191406 1348.828125 866.617188 1350.492188 857.003906 1351.917969 C 847.386719 1353.34375 837.742188 1354.535156 828.070312 1355.484375 C 818.398438 1356.4375 808.707031 1357.152344 798.996094 1357.628906 C 789.289062 1358.109375 779.574219 1358.347656 769.855469 1358.347656 C 760.132812 1358.347656 750.421875 1358.109375 740.710938 1357.628906 C 731.003906 1357.152344 721.3125 1356.4375 711.640625 1355.484375 C 701.964844 1354.535156 692.320312 1353.34375 682.707031 1351.917969 C 673.089844 1350.492188 663.515625 1348.828125 653.984375 1346.933594 C 644.449219 1345.039062 634.96875 1342.910156 625.539062 1340.546875 C 616.113281 1338.183594 606.746094 1335.59375 597.445312 1332.769531 C 588.144531 1329.949219 578.917969 1326.902344 569.765625 1323.628906 C 560.613281 1320.351562 551.546875 1316.855469 542.566406 1313.136719 C 533.585938 1309.414062 524.703125 1305.476562 515.917969 1301.320312 C 507.128906 1297.167969 498.449219 1292.796875 489.878906 1288.214844 C 481.304688 1283.632812 472.851562 1278.84375 464.511719 1273.847656 C 456.175781 1268.847656 447.964844 1263.652344 439.882812 1258.25 C 431.800781 1252.851562 423.855469 1247.253906 416.050781 1241.464844 C 408.242188 1235.675781 400.582031 1229.695312 393.070312 1223.53125 C 385.554688 1217.363281 378.195312 1211.015625 370.996094 1204.488281 C 363.792969 1197.960938 356.753906 1191.261719 349.882812 1184.386719 C 343.007812 1177.515625 336.308594 1170.476562 329.78125 1163.273438 C 323.253906 1156.074219 316.90625 1148.714844 310.738281 1141.199219 C 304.574219 1133.6875 298.59375 1126.027344 292.804688 1118.21875 C 287.015625 1110.410156 281.417969 1102.46875 276.019531 1094.386719 C 270.617188 1086.304688 265.417969 1078.09375 260.421875 1069.757812 C 255.425781 1061.417969 250.636719 1052.964844 246.054688 1044.390625 C 241.472656 1035.820312 237.101562 1027.140625 232.945312 1018.351562 C 228.792969 1009.566406 224.851562 1000.683594 221.132812 991.703125 C 217.414062 982.722656 213.917969 973.65625 210.640625 964.503906 C 207.367188 955.351562 204.320312 946.125 201.496094 936.824219 C 198.675781 927.523438 196.085938 918.15625 193.722656 908.726562 C 191.359375 899.300781 189.230469 889.816406 187.335938 880.285156 C 185.4375 870.75 183.777344 861.175781 182.351562 851.5625 C 180.925781 841.949219 179.734375 832.304688 178.785156 822.628906 C 177.832031 812.957031 177.117188 803.265625 176.640625 793.558594 C 176.160156 783.847656 175.921875 774.136719 175.921875 764.414062 C 175.921875 754.695312 176.160156 744.980469 176.640625 735.273438 C 177.117188 725.5625 177.832031 715.871094 178.785156 706.199219 C 179.734375 696.527344 180.925781 686.882812 182.351562 677.265625 C 183.777344 667.652344 185.4375 658.078125 187.335938 648.542969 C 189.230469 639.011719 191.359375 629.53125 193.722656 620.101562 C 196.085938 610.671875 198.675781 601.308594 201.496094 592.003906 C 204.320312 582.703125 207.367188 573.476562 210.640625 564.324219 C 213.917969 555.171875 217.414062 546.105469 221.132812 537.128906 C 224.851562 528.148438 228.792969 519.261719 232.945312 510.476562 C 237.101562 501.691406 241.472656 493.011719 246.054688 484.4375 C 250.636719 475.863281 255.425781 467.410156 260.421875 459.074219 C 265.417969 450.734375 270.617188 442.527344 276.019531 434.445312 C 281.417969 426.363281 287.015625 418.417969 292.804688 410.609375 C 298.59375 402.804688 304.574219 395.144531 310.738281 387.628906 C 316.90625 380.113281 323.253906 372.757812 329.78125 365.554688 C 336.308594 358.351562 343.007812 351.316406 349.882812 344.441406 C 356.753906 337.570312 363.792969 330.867188 370.996094 324.339844 C 378.195312 317.8125 385.554688 311.464844 393.070312 305.300781 C 400.582031 299.132812 408.242188 293.15625 416.050781 287.363281 C 423.855469 281.574219 431.800781 275.980469 439.882812 270.578125 C 447.964844 265.179688 456.175781 259.980469 464.511719 254.984375 C 472.851562 249.984375 481.304688 245.195312 489.878906 240.613281 C 498.449219 236.03125 507.128906 231.664062 515.917969 227.507812 C 524.703125 223.351562 533.585938 219.414062 542.566406 215.695312 C 551.546875 211.972656 560.613281 208.476562 569.765625 205.203125 C 578.917969 201.929688 588.144531 198.878906 597.445312 196.058594 C 606.746094 193.238281 616.113281 190.644531 625.539062 188.28125 C 634.96875 185.921875 644.449219 183.792969 653.984375 181.894531 C 663.515625 180 673.089844 178.339844 682.707031 176.910156 C 692.320312 175.484375 701.964844 174.296875 711.640625 173.34375 C 721.3125 172.390625 731.003906 171.675781 740.710938 171.199219 C 750.421875 170.722656 760.132812 170.484375 769.855469 170.484375 C 779.574219 170.484375 789.289062 170.722656 798.996094 171.199219 C 808.707031 171.675781 818.398438 172.390625 828.070312 173.34375 C 837.742188 174.296875 847.386719 175.484375 857.003906 176.910156 C 866.617188 178.339844 876.191406 180 885.722656 181.894531 C 895.257812 183.792969 904.738281 185.921875 914.167969 188.28125 C 923.597656 190.644531 932.960938 193.238281 942.261719 196.058594 C 951.566406 198.878906 960.792969 201.929688 969.945312 205.203125 C 979.09375 208.476562 988.160156 211.972656 997.140625 215.695312 C 1006.121094 219.414062 1015.003906 223.351562 1023.792969 227.507812 C 1032.578125 231.664062 1041.257812 236.03125 1049.832031 240.613281 C 1058.402344 245.195312 1066.859375 249.984375 1075.195312 254.984375 C 1083.53125 259.980469 1091.742188 265.179688 1099.824219 270.578125 C 1107.90625 275.980469 1115.851562 281.574219 1123.660156 287.363281 C 1131.464844 293.15625 1139.125 299.132812 1146.640625 305.300781 C 1154.152344 311.464844 1161.511719 317.8125 1168.714844 324.339844 C 1175.917969 330.867188 1182.953125 337.570312 1189.828125 344.441406 C 1196.699219 351.316406 1203.402344 358.351562 1209.929688 365.554688 C 1216.457031 372.757812 1222.804688 380.113281 1228.96875 387.628906 C 1235.136719 395.144531 1241.113281 402.804688 1246.90625 410.609375 C 1252.695312 418.417969 1258.289062 426.363281 1263.691406 434.445312 C 1269.089844 442.527344 1274.289062 450.734375 1279.285156 459.074219 C 1284.28125 467.410156 1289.074219 475.863281 1293.65625 484.4375 C 1298.238281 493.011719 1302.605469 501.691406 1306.761719 510.476562 C 1310.917969 519.261719 1314.855469 528.148438 1318.574219 537.128906 C 1322.292969 546.105469 1325.792969 555.171875 1329.066406 564.324219 C 1332.339844 573.476562 1335.390625 582.703125 1338.210938 592.003906 C 1341.03125 601.308594 1343.625 610.671875 1345.984375 620.101562 C 1348.347656 629.53125 1350.476562 639.011719 1352.375 648.542969 C 1354.269531 658.078125 1355.929688 667.652344 1357.355469 677.265625 C 1358.785156 686.882812 1359.972656 696.527344 1360.925781 706.199219 C 1361.878906 715.871094 1362.59375 725.5625 1363.070312 735.273438 C 1363.546875 744.980469 1363.785156 754.695312 1363.785156 764.414062 Z M 1363.785156 764.414062 " fill-opacity="1" fill-rule="nonzero"/><path fill="#ffffff" d="M 663.703125 475.664062 L 663.976562 476.210938 L 699.402344 546.464844 C 700.351562 548.351562 701.226562 550.273438 702.023438 552.230469 C 702.816406 554.183594 703.535156 556.171875 704.171875 558.183594 C 704.804688 560.199219 705.359375 562.234375 705.832031 564.292969 C 706.304688 566.355469 706.695312 568.429688 707 570.519531 C 707.304688 572.609375 707.523438 574.707031 707.660156 576.816406 C 707.796875 578.921875 707.847656 581.035156 707.8125 583.144531 C 707.78125 585.257812 707.660156 587.363281 707.457031 589.46875 C 707.253906 591.570312 706.964844 593.660156 706.59375 595.738281 C 706.222656 597.820312 705.765625 599.878906 705.226562 601.921875 C 704.691406 603.964844 704.070312 605.984375 703.371094 607.976562 C 702.667969 609.96875 701.890625 611.929688 701.03125 613.859375 C 700.171875 615.789062 699.238281 617.683594 698.226562 619.535156 C 697.214844 621.390625 696.132812 623.203125 694.976562 624.96875 C 693.816406 626.738281 692.589844 628.457031 691.296875 630.125 C 690 631.792969 688.640625 633.40625 687.214844 634.964844 C 685.789062 636.523438 684.304688 638.023438 682.757812 639.460938 C 681.21875 640.890625 679.738281 642.378906 678.320312 643.925781 C 676.898438 645.472656 675.542969 647.074219 674.253906 648.730469 C 672.960938 650.386719 671.738281 652.09375 670.582031 653.847656 C 669.429688 655.601562 668.347656 657.398438 667.335938 659.238281 C 666.324219 661.078125 665.390625 662.957031 664.53125 664.875 C 663.671875 666.789062 662.890625 668.738281 662.1875 670.714844 C 661.484375 672.695312 660.859375 674.699219 660.316406 676.726562 C 659.773438 678.753906 659.3125 680.804688 658.9375 682.867188 C 658.558594 684.933594 658.261719 687.011719 658.050781 689.101562 C 657.839844 691.191406 657.710938 693.285156 657.667969 695.382812 C 657.625 697.484375 657.664062 699.582031 657.789062 701.679688 C 657.914062 703.773438 658.121094 705.863281 658.414062 707.941406 C 658.707031 710.019531 659.082031 712.085938 659.539062 714.136719 C 659.996094 716.183594 660.535156 718.210938 661.15625 720.21875 C 661.777344 722.226562 662.476562 724.203125 663.257812 726.152344 C 664.035156 728.101562 664.894531 730.019531 665.824219 731.898438 C 687.089844 774.601562 723.933594 833.460938 780.15625 875.929688 C 781.71875 877.117188 783.324219 878.246094 784.972656 879.3125 C 786.625 880.378906 788.308594 881.386719 790.03125 882.328125 C 791.757812 883.269531 793.511719 884.144531 795.300781 884.957031 C 797.089844 885.765625 798.90625 886.507812 800.753906 887.183594 C 802.597656 887.859375 804.464844 888.464844 806.355469 889 C 808.242188 889.535156 810.152344 890 812.074219 890.394531 C 814 890.785156 815.9375 891.109375 817.882812 891.355469 C 819.832031 891.605469 821.789062 891.78125 823.75 891.882812 C 825.710938 891.984375 827.671875 892.015625 829.636719 891.96875 C 831.601562 891.925781 833.558594 891.808594 835.515625 891.621094 C 837.46875 891.429688 839.414062 891.164062 841.351562 890.832031 C 843.285156 890.496094 845.207031 890.085938 847.109375 889.609375 C 849.015625 889.128906 850.898438 888.582031 852.761719 887.960938 C 854.628906 887.339844 856.464844 886.652344 858.277344 885.894531 C 860.089844 885.136719 861.871094 884.316406 863.621094 883.425781 C 865.375 882.535156 867.089844 881.582031 868.769531 880.5625 L 891.582031 866.679688 C 894.128906 865.128906 896.761719 863.726562 899.46875 862.476562 C 902.179688 861.222656 904.949219 860.128906 907.785156 859.191406 C 910.617188 858.253906 913.496094 857.480469 916.417969 856.871094 C 919.339844 856.261719 922.285156 855.820312 925.257812 855.546875 C 928.230469 855.273438 931.210938 855.167969 934.195312 855.234375 C 937.179688 855.300781 940.148438 855.53125 943.105469 855.9375 C 946.0625 856.339844 948.988281 856.910156 951.882812 857.644531 C 954.773438 858.382812 957.613281 859.277344 960.40625 860.339844 L 1051.082031 894.816406 C 1052.285156 895.273438 1053.476562 895.761719 1054.65625 896.277344 C 1055.835938 896.792969 1057 897.335938 1058.15625 897.910156 C 1059.308594 898.484375 1060.445312 899.085938 1061.570312 899.714844 C 1062.691406 900.34375 1063.800781 901 1064.890625 901.683594 C 1065.980469 902.367188 1067.054688 903.078125 1068.109375 903.8125 C 1069.167969 904.550781 1070.203125 905.3125 1071.222656 906.097656 C 1072.242188 906.886719 1073.242188 907.695312 1074.21875 908.535156 C 1075.199219 909.371094 1076.15625 910.230469 1077.09375 911.113281 C 1078.03125 911.996094 1078.945312 912.902344 1079.835938 913.828125 C 1080.730469 914.757812 1081.597656 915.707031 1082.445312 916.679688 C 1083.289062 917.648438 1084.109375 918.640625 1084.90625 919.652344 C 1085.703125 920.664062 1086.476562 921.691406 1087.222656 922.742188 C 1087.96875 923.789062 1088.691406 924.855469 1089.382812 925.941406 C 1090.078125 927.027344 1090.746094 928.125 1091.386719 929.242188 C 1092.023438 930.359375 1092.636719 931.492188 1093.222656 932.640625 C 1093.804688 933.789062 1094.363281 934.949219 1094.890625 936.121094 C 1095.417969 937.296875 1095.914062 938.484375 1096.382812 939.683594 C 1096.851562 940.882812 1097.292969 942.089844 1097.703125 943.3125 C 1098.113281 944.53125 1098.492188 945.761719 1098.839844 947 C 1099.191406 948.242188 1099.507812 949.488281 1099.796875 950.742188 C 1100.085938 951.996094 1100.34375 953.257812 1100.570312 954.527344 C 1100.796875 955.792969 1100.992188 957.066406 1101.152344 958.34375 C 1101.316406 959.621094 1101.449219 960.898438 1101.550781 962.183594 C 1101.652344 963.46875 1101.722656 964.753906 1101.757812 966.039062 C 1101.796875 967.324219 1101.804688 968.613281 1101.777344 969.898438 C 1101.753906 971.1875 1101.695312 972.472656 1101.609375 973.757812 C 1101.519531 975.042969 1101.398438 976.324219 1101.246094 977.601562 C 1101.097656 978.878906 1100.914062 980.15625 1100.699219 981.425781 C 1100.484375 982.695312 1100.242188 983.957031 1099.964844 985.214844 C 1099.6875 986.472656 1099.382812 987.722656 1099.042969 988.964844 C 1098.707031 990.207031 1098.339844 991.441406 1097.941406 992.664062 C 1097.542969 993.890625 1097.117188 995.105469 1096.65625 996.308594 C 1095.597656 999.078125 1094.390625 1001.777344 1093.03125 1004.414062 L 1067.90625 1053.117188 C 1066.890625 1055.085938 1065.796875 1057.003906 1064.617188 1058.878906 C 1063.441406 1060.75 1062.1875 1062.570312 1060.855469 1064.339844 C 1059.523438 1066.105469 1058.121094 1067.816406 1056.648438 1069.464844 C 1055.171875 1071.113281 1053.628906 1072.699219 1052.023438 1074.21875 C 1050.414062 1075.738281 1048.746094 1077.1875 1047.015625 1078.566406 C 1045.28125 1079.945312 1043.496094 1081.246094 1041.65625 1082.476562 C 1039.816406 1083.703125 1037.925781 1084.851562 1035.988281 1085.921875 C 1034.050781 1086.988281 1032.074219 1087.972656 1030.054688 1088.875 C 1028.03125 1089.777344 1025.976562 1090.59375 1023.890625 1091.324219 C 1021.800781 1092.050781 1019.683594 1092.691406 1017.539062 1093.242188 C 1015.398438 1093.789062 1013.234375 1094.25 1011.054688 1094.617188 C 1008.871094 1094.984375 1006.675781 1095.261719 1004.472656 1095.445312 C 1002.265625 1095.625 1000.058594 1095.714844 997.847656 1095.714844 C 995.632812 1095.710938 993.425781 1095.613281 991.21875 1095.425781 C 989.015625 1095.234375 986.824219 1094.953125 984.640625 1094.578125 C 982.460938 1094.203125 980.300781 1093.738281 978.160156 1093.179688 C 835.746094 1056.335938 496.335938 928.261719 468.988281 540.980469 C 468.851562 539.070312 468.789062 537.160156 468.792969 535.246094 C 468.796875 533.332031 468.871094 531.421875 469.015625 529.515625 C 469.15625 527.605469 469.371094 525.707031 469.652344 523.8125 C 469.933594 521.921875 470.285156 520.039062 470.703125 518.175781 C 471.125 516.308594 471.609375 514.457031 472.164062 512.625 C 472.71875 510.792969 473.339844 508.984375 474.023438 507.199219 C 474.710938 505.414062 475.460938 503.652344 476.277344 501.921875 C 477.089844 500.191406 477.96875 498.492188 478.90625 496.824219 C 479.84375 495.15625 480.839844 493.523438 481.898438 491.929688 C 482.957031 490.335938 484.070312 488.78125 485.242188 487.265625 C 486.410156 485.753906 487.636719 484.285156 488.914062 482.859375 C 490.191406 481.433594 491.519531 480.058594 492.898438 478.730469 C 494.277344 477.40625 495.703125 476.128906 497.171875 474.90625 C 498.644531 473.683594 500.15625 472.511719 501.714844 471.398438 C 503.269531 470.289062 504.867188 469.230469 506.5 468.234375 C 508.132812 467.238281 509.800781 466.300781 511.503906 465.425781 L 557.75 441.667969 C 558.894531 441.082031 560.054688 440.519531 561.226562 439.988281 C 562.398438 439.457031 563.585938 438.953125 564.78125 438.480469 C 565.980469 438.007812 567.1875 437.5625 568.40625 437.148438 C 569.625 436.734375 570.855469 436.347656 572.09375 435.996094 C 573.332031 435.640625 574.578125 435.316406 575.832031 435.023438 C 577.085938 434.730469 578.34375 434.46875 579.613281 434.238281 C 580.878906 434.007812 582.152344 433.808594 583.425781 433.636719 C 584.703125 433.46875 585.984375 433.332031 587.265625 433.226562 C 588.550781 433.121094 589.835938 433.046875 591.121094 433.003906 C 592.410156 432.960938 593.695312 432.949219 594.984375 432.972656 C 596.273438 432.992188 597.558594 433.042969 598.84375 433.128906 C 600.128906 433.210938 601.410156 433.324219 602.691406 433.472656 C 603.96875 433.621094 605.246094 433.796875 606.515625 434.007812 C 607.785156 434.214844 609.050781 434.457031 610.308594 434.726562 C 611.566406 435 612.820312 435.300781 614.0625 435.632812 C 615.308594 435.964844 616.542969 436.328125 617.769531 436.722656 C 618.996094 437.117188 620.210938 437.539062 621.414062 437.992188 C 622.621094 438.445312 623.8125 438.929688 624.996094 439.441406 C 626.175781 439.953125 627.347656 440.492188 628.5 441.0625 C 629.65625 441.628906 630.796875 442.226562 631.921875 442.851562 C 633.046875 443.476562 634.15625 444.128906 635.253906 444.808594 C 636.347656 445.488281 637.421875 446.195312 638.480469 446.925781 C 639.539062 447.660156 640.582031 448.417969 641.601562 449.199219 C 642.625 449.984375 643.625 450.792969 644.609375 451.625 C 645.589844 452.457031 646.550781 453.3125 647.492188 454.195312 C 648.433594 455.074219 649.351562 455.976562 650.246094 456.902344 C 651.144531 457.824219 652.015625 458.773438 652.863281 459.742188 C 653.714844 460.707031 654.539062 461.695312 655.339844 462.703125 C 656.140625 463.710938 656.917969 464.742188 657.667969 465.785156 C 658.417969 466.832031 659.140625 467.898438 659.839844 468.980469 C 660.539062 470.0625 661.210938 471.160156 661.855469 472.273438 C 662.5 473.390625 663.113281 474.519531 663.703125 475.664062 Z M 663.703125 475.664062 " fill-opacity="1" fill-rule="nonzero"/></svg>