<svg xmlns="http://www.w3.org/2000/svg" xmlns:xlink="http://www.w3.org/1999/xlink" width="2048" zoomAndPan="magnify" viewBox="0 0 1536 1535.999932" height="2048" preserveAspectRatio="xMidYMid meet" version="1.0"><defs><clipPath id="97ee5f70a6"><path d="M 0 1532.109375 L 399 1532.109375 L 399 1536 L 0 1536 Z M 0 1532.109375 " clip-rule="nonzero"/></clipPath><clipPath id="eb11e94b83"><path d="M 67 67 L 1469.425781 67 L 1469.425781 1469.425781 L 67 1469.425781 Z M 67 67 " clip-rule="nonzero"/></clipPath></defs><g clip-path="url(#97ee5f70a6)"><path fill="#000000" d="M 385.339844 2041.230469 L 268.425781 1924.285156 L 244.238281 1900.089844 C 241.632812 1897.484375 237.019531 1897.484375 234.414062 1900.089844 L 230.734375 1903.773438 C 230.390625 1902.964844 229.914062 1902.203125 229.253906 1901.542969 L 199.484375 1871.75 C 225.871094 1835.484375 240.144531 1791.925781 240.144531 1746.113281 C 240.144531 1688.886719 217.929688 1635.136719 177.574219 1594.78125 C 137.226562 1554.429688 83.503906 1532.207031 26.300781 1532.207031 C -30.90625 1532.207031 -84.640625 1554.4375 -124.992188 1594.796875 C -208.402344 1678.234375 -208.402344 1814.003906 -124.992188 1897.457031 C -84.636719 1937.808594 -30.90625 1960.03125 26.296875 1960.03125 C 72.097656 1960.03125 115.640625 1945.75 151.898438 1919.359375 L 181.671875 1949.15625 C 182.332031 1949.816406 183.089844 1950.296875 183.894531 1950.636719 L 180.25 1954.292969 C 177.53125 1957.007812 177.53125 1961.402344 180.25 1964.117188 L 205.367188 1989.253906 L 321.328125 2105.265625 C 329.875 2113.820312 341.246094 2118.53125 353.335938 2118.53125 C 365.421875 2118.53125 376.792969 2113.820312 385.339844 2105.265625 C 402.984375 2087.59375 402.984375 2058.875 385.339844 2041.230469 Z M -115.179688 1887.617188 C -193.175781 1809.585938 -193.175781 1682.632812 -115.179688 1604.609375 C -77.453125 1566.875 -27.210938 1546.089844 26.289062 1546.089844 C 79.78125 1546.089844 130.019531 1566.867188 167.738281 1604.59375 C 205.464844 1642.328125 226.238281 1692.582031 226.238281 1746.097656 C 226.238281 1799.613281 205.464844 1849.867188 167.738281 1887.59375 C 130.015625 1925.328125 79.78125 1946.105469 26.28125 1946.105469 C -27.203125 1946.121094 -77.453125 1925.339844 -115.179688 1887.617188 Z M 191.488281 1939.316406 L 162.945312 1910.75 C 167.988281 1906.550781 172.878906 1902.132812 177.566406 1897.433594 C 182.257812 1892.738281 186.6875 1887.84375 190.882812 1882.804688 L 219.421875 1911.367188 C 220.082031 1912.027344 220.839844 1912.515625 221.652344 1912.847656 L 192.960938 1941.546875 C 192.628906 1940.742188 192.148438 1939.976562 191.488281 1939.316406 Z M 239.328125 1914.828125 L 253.839844 1929.34375 L 210.128906 1974.351562 L 194.976562 1959.191406 Z M 375.515625 2095.433594 C 369.582031 2101.359375 361.710938 2104.628906 353.335938 2104.628906 C 344.957031 2104.628906 337.078125 2101.359375 331.152344 2095.433594 L 219.957031 1984.179688 L 263.667969 1939.164062 L 375.523438 2051.058594 C 387.742188 2063.289062 387.742188 2083.191406 375.515625 2095.433594 Z M 375.515625 2095.433594 " fill-opacity="1" fill-rule="nonzero"/></g><g clip-path="url(#eb11e94b83)"><path fill="#000000" d="M 1469.308594 768.117188 C 1468.949219 1154.007812 1157.457031 1469.425781 767.757812 1469.1875 C 380.679688 1468.949219 67.042969 1156.503906 67.164062 767.761719 C 67.28125 378.539062 382.222656 67.164062 768.355469 67.042969 C 1155.316406 66.925781 1469.308594 381.152344 1469.308594 768.117188 Z M 889.339844 921.664062 C 889.339844 835.265625 889.21875 748.980469 889.457031 662.582031 C 889.578125 629.898438 877.929688 602.207031 853.804688 580.695312 C 815.773438 546.707031 771.5625 539.574219 724.144531 556.332031 C 678.863281 572.378906 648.558594 615.875 648.796875 665.078125 C 649.746094 837.164062 649.269531 1009.253906 649.03125 1181.34375 C 649.03125 1278.558594 732.34375 1294.960938 772.15625 1294.839844 C 832.054688 1294.605469 890.882812 1246.351562 889.695312 1177.066406 C 888.152344 1091.972656 889.339844 1006.757812 889.339844 921.664062 Z M 897.539062 369.507812 C 897.421875 297.722656 840.136719 240.558594 768.234375 240.558594 C 696.214844 240.558594 638.691406 298.199219 638.8125 370.21875 C 638.929688 441.410156 697.046875 499.40625 768.355469 499.40625 C 840.136719 499.40625 897.539062 441.648438 897.539062 369.507812 Z M 897.539062 369.507812 " fill-opacity="1" fill-rule="nonzero"/></g></svg>