<svg xmlns="http://www.w3.org/2000/svg" xmlns:xlink="http://www.w3.org/1999/xlink" width="2048" zoomAndPan="magnify" viewBox="0 0 1536 1535.999932" height="2048" preserveAspectRatio="xMidYMid meet" version="1.0"><defs><clipPath id="8cefe63408"><path d="M 0 1532.109375 L 399 1532.109375 L 399 1536 L 0 1536 Z M 0 1532.109375 " clip-rule="nonzero"/></clipPath><clipPath id="97bd5386ff"><path d="M 51 329 L 1097 329 L 1097 1207.105469 L 51 1207.105469 Z M 51 329 " clip-rule="nonzero"/></clipPath></defs><g clip-path="url(#8cefe63408)"><path fill="#000000" d="M 385.339844 2041.230469 L 268.425781 1924.285156 L 244.238281 1900.089844 C 241.632812 1897.484375 237.019531 1897.484375 234.414062 1900.089844 L 230.734375 1903.773438 C 230.390625 1902.964844 229.914062 1902.203125 229.253906 1901.542969 L 199.484375 1871.75 C 225.871094 1835.484375 240.144531 1791.925781 240.144531 1746.113281 C 240.144531 1688.886719 217.929688 1635.136719 177.574219 1594.78125 C 137.226562 1554.429688 83.503906 1532.207031 26.300781 1532.207031 C -30.90625 1532.207031 -84.640625 1554.4375 -124.992188 1594.796875 C -208.402344 1678.234375 -208.402344 1814.003906 -124.992188 1897.457031 C -84.636719 1937.808594 -30.90625 1960.03125 26.296875 1960.03125 C 72.097656 1960.03125 115.640625 1945.75 151.898438 1919.359375 L 181.671875 1949.15625 C 182.332031 1949.816406 183.089844 1950.296875 183.894531 1950.636719 L 180.25 1954.292969 C 177.53125 1957.007812 177.53125 1961.402344 180.25 1964.117188 L 205.367188 1989.253906 L 321.328125 2105.265625 C 329.875 2113.820312 341.246094 2118.53125 353.335938 2118.53125 C 365.421875 2118.53125 376.792969 2113.820312 385.339844 2105.265625 C 402.984375 2087.59375 402.984375 2058.875 385.339844 2041.230469 Z M -115.179688 1887.617188 C -193.175781 1809.585938 -193.175781 1682.632812 -115.179688 1604.609375 C -77.453125 1566.875 -27.210938 1546.089844 26.289062 1546.089844 C 79.78125 1546.089844 130.019531 1566.867188 167.738281 1604.59375 C 205.464844 1642.328125 226.238281 1692.582031 226.238281 1746.097656 C 226.238281 1799.613281 205.464844 1849.867188 167.738281 1887.59375 C 130.015625 1925.328125 79.78125 1946.105469 26.28125 1946.105469 C -27.203125 1946.121094 -77.453125 1925.339844 -115.179688 1887.617188 Z M 191.488281 1939.316406 L 162.945312 1910.75 C 167.988281 1906.550781 172.878906 1902.132812 177.566406 1897.433594 C 182.257812 1892.738281 186.6875 1887.84375 190.882812 1882.804688 L 219.421875 1911.367188 C 220.082031 1912.027344 220.839844 1912.515625 221.652344 1912.847656 L 192.960938 1941.546875 C 192.628906 1940.742188 192.148438 1939.976562 191.488281 1939.316406 Z M 239.328125 1914.828125 L 253.839844 1929.34375 L 210.128906 1974.351562 L 194.976562 1959.191406 Z M 375.515625 2095.433594 C 369.582031 2101.359375 361.710938 2104.628906 353.335938 2104.628906 C 344.957031 2104.628906 337.078125 2101.359375 331.152344 2095.433594 L 219.957031 1984.179688 L 263.667969 1939.164062 L 375.523438 2051.058594 C 387.742188 2063.289062 387.742188 2083.191406 375.515625 2095.433594 Z M 375.515625 2095.433594 " fill-opacity="1" fill-rule="nonzero"/></g><g clip-path="url(#97bd5386ff)"><path fill="#ffffff" d="M 223.546875 329.140625 L 924.882812 329.140625 C 927.699219 329.140625 930.511719 329.210938 933.320312 329.347656 C 936.128906 329.488281 938.9375 329.695312 941.738281 329.96875 C 944.535156 330.246094 947.328125 330.589844 950.113281 331.003906 C 952.894531 331.414062 955.667969 331.894531 958.425781 332.445312 C 961.1875 332.992188 963.929688 333.609375 966.660156 334.292969 C 969.390625 334.976562 972.101562 335.726562 974.792969 336.542969 C 977.484375 337.363281 980.15625 338.242188 982.804688 339.191406 C 985.457031 340.140625 988.078125 341.152344 990.679688 342.230469 C 993.277344 343.304688 995.851562 344.445312 998.394531 345.648438 C 1000.9375 346.851562 1003.449219 348.117188 1005.933594 349.441406 C 1008.414062 350.769531 1010.859375 352.15625 1013.273438 353.601562 C 1015.6875 355.050781 1018.066406 356.554688 1020.402344 358.117188 C 1022.742188 359.679688 1025.042969 361.300781 1027.304688 362.976562 C 1029.5625 364.652344 1031.78125 366.382812 1033.957031 368.167969 C 1036.132812 369.953125 1038.261719 371.789062 1040.347656 373.679688 C 1042.429688 375.570312 1044.46875 377.507812 1046.457031 379.5 C 1048.449219 381.488281 1050.386719 383.527344 1052.277344 385.609375 C 1054.167969 387.695312 1056.003906 389.824219 1057.789062 392 C 1059.574219 394.175781 1061.304688 396.394531 1062.980469 398.652344 C 1064.65625 400.914062 1066.277344 403.214844 1067.839844 405.554688 C 1069.402344 407.894531 1070.910156 410.269531 1072.355469 412.683594 C 1073.800781 415.097656 1075.1875 417.542969 1076.515625 420.023438 C 1077.839844 422.507812 1079.105469 425.019531 1080.308594 427.5625 C 1081.511719 430.105469 1082.652344 432.679688 1083.726562 435.277344 C 1084.804688 437.878906 1085.816406 440.5 1086.765625 443.152344 C 1087.714844 445.800781 1088.59375 448.472656 1089.414062 451.164062 C 1090.230469 453.855469 1090.980469 456.566406 1091.664062 459.296875 C 1092.347656 462.027344 1092.964844 464.769531 1093.511719 467.53125 C 1094.0625 470.289062 1094.542969 473.0625 1094.953125 475.84375 C 1095.367188 478.628906 1095.710938 481.421875 1095.988281 484.222656 C 1096.265625 487.019531 1096.46875 489.828125 1096.609375 492.636719 C 1096.746094 495.449219 1096.816406 498.257812 1096.816406 501.074219 L 1096.816406 1036.210938 C 1096.816406 1039.023438 1096.746094 1041.835938 1096.609375 1044.648438 C 1096.46875 1047.457031 1096.265625 1050.261719 1095.988281 1053.0625 C 1095.710938 1055.863281 1095.367188 1058.65625 1094.953125 1061.4375 C 1094.542969 1064.222656 1094.0625 1066.992188 1093.511719 1069.753906 C 1092.964844 1072.511719 1092.347656 1075.257812 1091.664062 1077.988281 C 1090.980469 1080.714844 1090.230469 1083.425781 1089.414062 1086.121094 C 1088.59375 1088.8125 1087.714844 1091.484375 1086.765625 1094.132812 C 1085.816406 1096.78125 1084.804688 1099.40625 1083.726562 1102.007812 C 1082.652344 1104.605469 1081.511719 1107.179688 1080.308594 1109.722656 C 1079.105469 1112.265625 1077.839844 1114.777344 1076.515625 1117.257812 C 1075.1875 1119.742188 1073.800781 1122.1875 1072.355469 1124.601562 C 1070.910156 1127.015625 1069.402344 1129.390625 1067.839844 1131.730469 C 1066.277344 1134.070312 1064.65625 1136.371094 1062.980469 1138.628906 C 1061.304688 1140.890625 1059.574219 1143.109375 1057.789062 1145.285156 C 1056.003906 1147.457031 1054.167969 1149.589844 1052.277344 1151.671875 C 1050.386719 1153.757812 1048.449219 1155.796875 1046.457031 1157.785156 C 1044.46875 1159.773438 1042.429688 1161.714844 1040.347656 1163.605469 C 1038.261719 1165.492188 1036.132812 1167.332031 1033.957031 1169.117188 C 1031.78125 1170.902344 1029.5625 1172.632812 1027.304688 1174.308594 C 1025.042969 1175.984375 1022.742188 1177.605469 1020.402344 1179.167969 C 1018.066406 1180.730469 1015.6875 1182.234375 1013.273438 1183.683594 C 1010.859375 1185.128906 1008.414062 1186.515625 1005.933594 1187.839844 C 1003.449219 1189.167969 1000.9375 1190.433594 998.394531 1191.636719 C 995.851562 1192.839844 993.277344 1193.976562 990.679688 1195.054688 C 988.078125 1196.132812 985.457031 1197.144531 982.804688 1198.09375 C 980.15625 1199.039062 977.484375 1199.921875 974.792969 1200.738281 C 972.101562 1201.554688 969.390625 1202.304688 966.660156 1202.988281 C 963.929688 1203.675781 961.1875 1204.289062 958.425781 1204.839844 C 955.667969 1205.386719 952.894531 1205.871094 950.113281 1206.28125 C 947.328125 1206.695312 944.535156 1207.039062 941.734375 1207.316406 C 938.9375 1207.589844 936.128906 1207.796875 933.320312 1207.9375 C 930.511719 1208.074219 927.699219 1208.144531 924.882812 1208.144531 L 223.546875 1208.144531 C 220.730469 1208.144531 217.917969 1208.074219 215.109375 1207.9375 C 212.296875 1207.796875 209.492188 1207.589844 206.691406 1207.316406 C 203.894531 1207.039062 201.101562 1206.695312 198.316406 1206.28125 C 195.535156 1205.871094 192.761719 1205.386719 190.003906 1204.839844 C 187.242188 1204.289062 184.5 1203.675781 181.769531 1202.988281 C 179.039062 1202.304688 176.328125 1201.554688 173.636719 1200.738281 C 170.945312 1199.921875 168.273438 1199.039062 165.625 1198.09375 C 162.972656 1197.144531 160.351562 1196.132812 157.75 1195.054688 C 155.152344 1193.976562 152.578125 1192.839844 150.035156 1191.636719 C 147.492188 1190.433594 144.980469 1189.167969 142.496094 1187.839844 C 140.015625 1186.515625 137.566406 1185.128906 135.15625 1183.683594 C 132.742188 1182.234375 130.363281 1180.730469 128.023438 1179.167969 C 125.6875 1177.605469 123.386719 1175.984375 121.125 1174.308594 C 118.867188 1172.632812 116.648438 1170.902344 114.472656 1169.117188 C 112.296875 1167.332031 110.167969 1165.492188 108.082031 1163.605469 C 106 1161.714844 103.960938 1159.773438 101.972656 1157.785156 C 99.980469 1155.796875 98.042969 1153.757812 96.152344 1151.671875 C 94.261719 1149.589844 92.425781 1147.457031 90.640625 1145.285156 C 88.855469 1143.109375 87.125 1140.890625 85.449219 1138.628906 C 83.773438 1136.371094 82.152344 1134.070312 80.589844 1131.730469 C 79.027344 1129.390625 77.519531 1127.015625 76.074219 1124.601562 C 74.628906 1122.1875 73.242188 1119.742188 71.914062 1117.257812 C 70.589844 1114.777344 69.324219 1112.265625 68.121094 1109.722656 C 66.917969 1107.175781 65.777344 1104.605469 64.703125 1102.007812 C 63.625 1099.40625 62.613281 1096.78125 61.664062 1094.132812 C 60.714844 1091.484375 59.832031 1088.8125 59.015625 1086.121094 C 58.199219 1083.425781 57.449219 1080.714844 56.765625 1077.988281 C 56.082031 1075.257812 55.464844 1072.511719 54.917969 1069.753906 C 54.367188 1066.992188 53.886719 1064.222656 53.472656 1061.4375 C 53.0625 1058.65625 52.71875 1055.863281 52.441406 1053.0625 C 52.164062 1050.261719 51.957031 1047.457031 51.820312 1044.648438 C 51.683594 1041.835938 51.613281 1039.023438 51.613281 1036.210938 L 51.613281 501.074219 C 51.613281 498.257812 51.683594 495.449219 51.820312 492.636719 C 51.957031 489.828125 52.164062 487.019531 52.441406 484.222656 C 52.71875 481.421875 53.0625 478.628906 53.472656 475.84375 C 53.886719 473.0625 54.367188 470.289062 54.917969 467.53125 C 55.464844 464.769531 56.082031 462.027344 56.765625 459.296875 C 57.449219 456.566406 58.199219 453.855469 59.015625 451.164062 C 59.832031 448.472656 60.714844 445.800781 61.664062 443.152344 C 62.613281 440.5 63.625 437.878906 64.703125 435.277344 C 65.777344 432.679688 66.917969 430.105469 68.121094 427.5625 C 69.324219 425.019531 70.589844 422.507812 71.914062 420.023438 C 73.242188 417.542969 74.628906 415.097656 76.074219 412.683594 C 77.519531 410.269531 79.027344 407.894531 80.589844 405.554688 C 82.152344 403.214844 83.773438 400.914062 85.449219 398.652344 C 87.125 396.394531 88.855469 394.175781 90.640625 392 C 92.425781 389.824219 94.261719 387.695312 96.152344 385.609375 C 98.042969 383.527344 99.980469 381.488281 101.972656 379.5 C 103.960938 377.507812 106 375.570312 108.082031 373.679688 C 110.167969 371.789062 112.296875 369.953125 114.472656 368.167969 C 116.648438 366.382812 118.867188 364.652344 121.125 362.976562 C 123.386719 361.300781 125.6875 359.679688 128.023438 358.117188 C 130.363281 356.554688 132.742188 355.050781 135.15625 353.601562 C 137.566406 352.15625 140.015625 350.769531 142.496094 349.441406 C 144.980469 348.117188 147.492188 346.851562 150.035156 345.648438 C 152.578125 344.445312 155.152344 343.304688 157.75 342.230469 C 160.351562 341.152344 162.972656 340.140625 165.625 339.191406 C 168.273438 338.242188 170.945312 337.363281 173.636719 336.542969 C 176.328125 335.726562 179.039062 334.976562 181.769531 334.292969 C 184.5 333.609375 187.242188 332.992188 190.003906 332.445312 C 192.761719 331.894531 195.535156 331.414062 198.316406 331.003906 C 201.101562 330.589844 203.894531 330.246094 206.691406 329.96875 C 209.492188 329.695312 212.296875 329.488281 215.109375 329.347656 C 217.917969 329.210938 220.730469 329.140625 223.546875 329.140625 Z M 223.546875 329.140625 " fill-opacity="1" fill-rule="nonzero"/></g><path fill="#ffffff" d="M 1384.945312 388.886719 L 1180.488281 506.519531 L 1180.488281 1030.910156 L 1385.089844 1148.539062 C 1439.675781 1179.917969 1484.523438 1154.128906 1484.523438 1091.230469 L 1484.523438 446.484375 C 1484.378906 383.300781 1439.675781 357.511719 1384.945312 388.886719 Z M 1384.945312 388.886719 " fill-opacity="1" fill-rule="nonzero"/></svg>