<svg xmlns="http://www.w3.org/2000/svg" xmlns:xlink="http://www.w3.org/1999/xlink" width="2048" zoomAndPan="magnify" viewBox="0 0 1536 1535.999932" height="2048" preserveAspectRatio="xMidYMid meet" version="1.0"><defs><clipPath id="b340379bde"><path d="M 0 1530.53125 L 424.777344 1530.53125 L 424.777344 1536 L 0 1536 Z M 0 1530.53125 " clip-rule="nonzero"/></clipPath><clipPath id="6bc446c099"><path d="M 60 633.449219 L 344 633.449219 L 344 902.699219 L 60 902.699219 Z M 60 633.449219 " clip-rule="nonzero"/></clipPath><clipPath id="201d17c3da"><path d="M 343 633.449219 L 627 633.449219 L 627 902.699219 L 343 902.699219 Z M 343 633.449219 " clip-rule="nonzero"/></clipPath><clipPath id="9a09a0b418"><path d="M 626 633.449219 L 910 633.449219 L 910 902.699219 L 626 902.699219 Z M 626 633.449219 " clip-rule="nonzero"/></clipPath><clipPath id="038dae4c2a"><path d="M 909 633.449219 L 1193 633.449219 L 1193 902.699219 L 909 902.699219 Z M 909 633.449219 " clip-rule="nonzero"/></clipPath><clipPath id="45292a7de0"><path d="M 1192 633.449219 L 1475.835938 633.449219 L 1475.835938 902.699219 L 1192 902.699219 Z M 1192 633.449219 " clip-rule="nonzero"/></clipPath></defs><g clip-path="url(#b340379bde)"><path fill="#000000" d="M 199.824219 1530.53125 C 149.308594 1530.53125 78.8125 1547.792969 33.488281 1604.179688 C -10.050781 1658.351562 -29.421875 1749.976562 -29.421875 1831.863281 C -29.421875 1905.039062 12.902344 1970.960938 49.964844 2025.515625 C 97.554688 2095.566406 147.3125 2144.84375 202.992188 2144.84375 C 257.734375 2144.84375 312.839844 2083.019531 356.417969 2015.292969 C 391.679688 1960.492188 424.390625 1897.054688 424.390625 1822.296875 C 424.390625 1745.386719 419.792969 1677.0625 382.128906 1623.671875 C 361.652344 1594.648438 337.625 1571.238281 306.898438 1555.847656 C 271.324219 1538.023438 228.515625 1530.53125 199.824219 1530.53125 Z M 3.933594 1850.640625 C 166.539062 1879.632812 170.300781 2005.410156 175.265625 2006.894531 C 172.671875 2006.96875 24.246094 2010.59375 3.933594 1850.640625 Z M 393.8125 1851.433594 C 349.164062 2009.976562 224.230469 2001.945312 221.574219 2006.65625 C 221.570312 2006.6875 221.535156 2006.933594 221.535156 2006.933594 C 221.496094 2006.835938 221.523438 2006.746094 221.574219 2006.65625 C 221.785156 2003.632812 232.898438 1855.976562 393.8125 1851.433594 Z M 393.8125 1851.433594 " fill-opacity="1" fill-rule="nonzero"/></g><g clip-path="url(#6bc446c099)"><path fill="#ffc500" d="M 202.035156 633.480469 L 235.429688 736.335938 L 343.496094 736.335938 L 256.070312 799.90625 L 289.460938 902.761719 L 202.035156 839.191406 L 114.609375 902.761719 L 148.003906 799.90625 L 60.578125 736.335938 L 168.640625 736.335938 Z M 202.035156 633.480469 " fill-opacity="1" fill-rule="evenodd"/></g><g clip-path="url(#201d17c3da)"><path fill="#ffc500" d="M 484.957031 633.480469 L 518.351562 736.335938 L 626.414062 736.335938 L 538.988281 799.90625 L 572.382812 902.761719 L 484.957031 839.191406 L 397.53125 902.761719 L 430.921875 799.90625 L 343.496094 736.335938 L 451.5625 736.335938 Z M 484.957031 633.480469 " fill-opacity="1" fill-rule="evenodd"/></g><g clip-path="url(#9a09a0b418)"><path fill="#ebebeb" d="M 767.867188 633.480469 L 801.261719 736.335938 L 909.324219 736.335938 L 821.898438 799.90625 L 855.292969 902.761719 L 767.867188 839.191406 L 680.441406 902.761719 L 713.835938 799.90625 L 626.410156 736.335938 L 734.472656 736.335938 Z M 767.867188 633.480469 " fill-opacity="1" fill-rule="evenodd"/></g><g clip-path="url(#038dae4c2a)"><path fill="#ebebeb" d="M 1050.785156 633.480469 L 1084.179688 736.335938 L 1192.246094 736.335938 L 1104.820312 799.90625 L 1138.214844 902.761719 L 1050.785156 839.191406 L 963.359375 902.761719 L 996.753906 799.90625 L 909.328125 736.335938 L 1017.394531 736.335938 Z M 1050.785156 633.480469 " fill-opacity="1" fill-rule="evenodd"/></g><g clip-path="url(#45292a7de0)"><path fill="#ebebeb" d="M 1333.707031 633.480469 L 1367.101562 736.335938 L 1475.164062 736.335938 L 1387.738281 799.90625 L 1421.132812 902.761719 L 1333.707031 839.191406 L 1246.28125 902.761719 L 1279.675781 799.90625 L 1192.25 736.335938 L 1300.3125 736.335938 Z M 1333.707031 633.480469 " fill-opacity="1" fill-rule="evenodd"/></g></svg>