<svg xmlns="http://www.w3.org/2000/svg" xmlns:xlink="http://www.w3.org/1999/xlink" width="2048" zoomAndPan="magnify" viewBox="0 0 1536 1535.999932" height="2048" preserveAspectRatio="xMidYMid meet" version="1.0"><defs><clipPath id="c288a3866c"><path d="M 0 1530.53125 L 424.777344 1530.53125 L 424.777344 1536 L 0 1536 Z M 0 1530.53125 " clip-rule="nonzero"/></clipPath><clipPath id="014bbd00d2"><path d="M 64 634.132812 L 346 634.132812 L 346 901.882812 L 64 901.882812 Z M 64 634.132812 " clip-rule="nonzero"/></clipPath><clipPath id="1d885dc322"><path d="M 204 634.132812 L 345.910156 634.132812 L 345.910156 901.882812 L 204 901.882812 Z M 204 634.132812 " clip-rule="nonzero"/></clipPath><clipPath id="f3c206cdff"><path d="M 204.886719 634.160156 L 238.121094 736.445312 L 345.667969 736.445312 L 258.660156 799.660156 L 291.894531 901.941406 L 204.886719 838.730469 L 117.878906 901.941406 L 151.113281 799.660156 L 64.105469 736.445312 L 171.652344 736.445312 Z M 204.886719 634.160156 " clip-rule="evenodd"/></clipPath><clipPath id="46a7194279"><path d="M 345 634.132812 L 628 634.132812 L 628 901.882812 L 345 901.882812 Z M 345 634.132812 " clip-rule="nonzero"/></clipPath><clipPath id="1e3cf154c3"><path d="M 627 634.132812 L 909 634.132812 L 909 901.882812 L 627 901.882812 Z M 627 634.132812 " clip-rule="nonzero"/></clipPath><clipPath id="a5085c0402"><path d="M 908 634.132812 L 1191 634.132812 L 1191 901.882812 L 908 901.882812 Z M 908 634.132812 " clip-rule="nonzero"/></clipPath><clipPath id="5c7e05a5ea"><path d="M 1190 634.132812 L 1472 634.132812 L 1472 901.882812 L 1190 901.882812 Z M 1190 634.132812 " clip-rule="nonzero"/></clipPath></defs><g clip-path="url(#c288a3866c)"><path fill="#000000" d="M 199.824219 1530.53125 C 149.308594 1530.53125 78.8125 1547.792969 33.488281 1604.179688 C -10.050781 1658.351562 -29.421875 1749.976562 -29.421875 1831.863281 C -29.421875 1905.039062 12.902344 1970.960938 49.964844 2025.515625 C 97.554688 2095.566406 147.3125 2144.84375 202.992188 2144.84375 C 257.734375 2144.84375 312.839844 2083.019531 356.417969 2015.292969 C 391.679688 1960.492188 424.390625 1897.054688 424.390625 1822.296875 C 424.390625 1745.386719 419.792969 1677.0625 382.128906 1623.671875 C 361.652344 1594.648438 337.625 1571.238281 306.898438 1555.847656 C 271.324219 1538.023438 228.515625 1530.53125 199.824219 1530.53125 Z M 3.933594 1850.640625 C 166.539062 1879.632812 170.300781 2005.410156 175.265625 2006.894531 C 172.671875 2006.96875 24.246094 2010.59375 3.933594 1850.640625 Z M 393.8125 1851.433594 C 349.164062 2009.976562 224.230469 2001.945312 221.574219 2006.65625 C 221.570312 2006.6875 221.535156 2006.933594 221.535156 2006.933594 C 221.496094 2006.835938 221.523438 2006.746094 221.574219 2006.65625 C 221.785156 2003.632812 232.898438 1855.976562 393.8125 1851.433594 Z M 393.8125 1851.433594 " fill-opacity="1" fill-rule="nonzero"/></g><g clip-path="url(#014bbd00d2)"><path fill="#ffc500" d="M 204.886719 634.160156 L 238.121094 736.445312 L 345.667969 736.445312 L 258.660156 799.660156 L 291.894531 901.941406 L 204.886719 838.730469 L 117.878906 901.941406 L 151.113281 799.660156 L 64.105469 736.445312 L 171.652344 736.445312 Z M 204.886719 634.160156 " fill-opacity="1" fill-rule="evenodd"/></g><g clip-path="url(#1d885dc322)"><g clip-path="url(#f3c206cdff)"><path fill="#ebebeb" d="M 204.582031 545.554688 L 355.367188 545.554688 L 355.367188 953.464844 L 204.582031 953.464844 Z M 204.582031 545.554688 " fill-opacity="1" fill-rule="evenodd"/></g></g><g clip-path="url(#46a7194279)"><path fill="#ebebeb" d="M 486.453125 634.160156 L 519.6875 736.445312 L 627.234375 736.445312 L 540.226562 799.660156 L 573.460938 901.941406 L 486.453125 838.730469 L 399.445312 901.941406 L 432.679688 799.660156 L 345.671875 736.445312 L 453.21875 736.445312 Z M 486.453125 634.160156 " fill-opacity="1" fill-rule="evenodd"/></g><g clip-path="url(#1e3cf154c3)"><path fill="#ebebeb" d="M 768.015625 634.160156 L 801.25 736.445312 L 908.796875 736.445312 L 821.789062 799.660156 L 855.023438 901.941406 L 768.015625 838.730469 L 681.007812 901.941406 L 714.242188 799.660156 L 627.234375 736.445312 L 734.78125 736.445312 Z M 768.015625 634.160156 " fill-opacity="1" fill-rule="evenodd"/></g><g clip-path="url(#a5085c0402)"><path fill="#ebebeb" d="M 1049.578125 634.160156 L 1082.8125 736.445312 L 1190.359375 736.445312 L 1103.351562 799.660156 L 1136.585938 901.941406 L 1049.578125 838.730469 L 962.570312 901.941406 L 995.804688 799.660156 L 908.796875 736.445312 L 1016.34375 736.445312 Z M 1049.578125 634.160156 " fill-opacity="1" fill-rule="evenodd"/></g><g clip-path="url(#5c7e05a5ea)"><path fill="#ebebeb" d="M 1331.136719 634.160156 L 1364.371094 736.445312 L 1471.921875 736.445312 L 1384.914062 799.660156 L 1418.144531 901.941406 L 1331.136719 838.730469 L 1244.128906 901.941406 L 1277.363281 799.660156 L 1190.355469 736.445312 L 1297.902344 736.445312 Z M 1331.136719 634.160156 " fill-opacity="1" fill-rule="evenodd"/></g></svg>