<svg xmlns="http://www.w3.org/2000/svg" xmlns:xlink="http://www.w3.org/1999/xlink" width="2048" zoomAndPan="magnify" viewBox="0 0 1536 1535.999932" height="2048" preserveAspectRatio="xMidYMid meet" version="1.0"><defs><clipPath id="ecee14928d"><path d="M 0 1530.53125 L 424.777344 1530.53125 L 424.777344 1536 L 0 1536 Z M 0 1530.53125 " clip-rule="nonzero"/></clipPath><clipPath id="df8d48ce5d"><path d="M 86 645.523438 L 897 645.523438 L 897 890.773438 L 86 890.773438 Z M 86 645.523438 " clip-rule="nonzero"/></clipPath><clipPath id="1f4233201b"><path d="M 915 645.523438 L 1450 645.523438 L 1450 890.773438 L 915 890.773438 Z M 915 645.523438 " clip-rule="nonzero"/></clipPath></defs><g clip-path="url(#ecee14928d)"><path fill="#000000" d="M 199.824219 1530.53125 C 149.308594 1530.53125 78.8125 1547.792969 33.488281 1604.179688 C -10.050781 1658.351562 -29.421875 1749.976562 -29.421875 1831.863281 C -29.421875 1905.039062 12.902344 1970.960938 49.964844 2025.515625 C 97.554688 2095.566406 147.3125 2144.84375 202.992188 2144.84375 C 257.734375 2144.84375 312.839844 2083.019531 356.417969 2015.292969 C 391.679688 1960.492188 424.390625 1897.054688 424.390625 1822.296875 C 424.390625 1745.386719 419.792969 1677.0625 382.128906 1623.671875 C 361.652344 1594.648438 337.625 1571.238281 306.898438 1555.847656 C 271.324219 1538.023438 228.515625 1530.53125 199.824219 1530.53125 Z M 3.933594 1850.640625 C 166.539062 1879.632812 170.300781 2005.410156 175.265625 2006.894531 C 172.671875 2006.96875 24.246094 2010.59375 3.933594 1850.640625 Z M 393.8125 1851.433594 C 349.164062 2009.976562 224.230469 2001.945312 221.574219 2006.65625 C 221.570312 2006.6875 221.535156 2006.933594 221.535156 2006.933594 C 221.496094 2006.835938 221.523438 2006.746094 221.574219 2006.65625 C 221.785156 2003.632812 232.898438 1855.976562 393.8125 1851.433594 Z M 393.8125 1851.433594 " fill-opacity="1" fill-rule="nonzero"/></g><g clip-path="url(#df8d48ce5d)"><path fill="#a6a6a6" d="M 215.261719 645.523438 L 245.664062 739.089844 L 344.046875 739.089844 L 264.453125 796.917969 L 294.855469 890.488281 L 215.261719 832.660156 L 135.667969 890.488281 L 166.070312 796.917969 L 86.476562 739.089844 L 184.859375 739.089844 Z M 491.625 645.523438 L 522.027344 739.089844 L 620.410156 739.089844 L 540.816406 796.917969 L 571.21875 890.488281 L 491.625 832.660156 L 412.03125 890.488281 L 442.433594 796.917969 L 362.839844 739.089844 L 461.222656 739.089844 Z M 767.988281 645.523438 L 798.386719 739.089844 L 896.769531 739.089844 L 817.175781 796.917969 L 847.582031 890.488281 L 767.988281 832.660156 L 688.394531 890.488281 L 718.792969 796.917969 L 639.199219 739.089844 L 737.582031 739.089844 Z M 767.988281 645.523438 " fill-opacity="1" fill-rule="evenodd"/></g><g clip-path="url(#1f4233201b)"><path fill="#a6a6a6" d="M 1044.347656 645.523438 L 1074.75 739.089844 L 1173.132812 739.089844 L 1093.539062 796.917969 L 1123.941406 890.488281 L 1044.347656 832.660156 L 964.753906 890.488281 L 995.15625 796.917969 L 915.5625 739.089844 L 1013.945312 739.089844 Z M 1320.710938 645.523438 L 1351.113281 739.089844 L 1449.496094 739.089844 L 1369.902344 796.917969 L 1400.304688 890.488281 L 1320.710938 832.660156 L 1241.117188 890.488281 L 1271.519531 796.917969 L 1191.925781 739.089844 L 1290.308594 739.089844 Z M 1320.710938 645.523438 " fill-opacity="1" fill-rule="evenodd"/></g></svg>