<svg xmlns="http://www.w3.org/2000/svg" xmlns:xlink="http://www.w3.org/1999/xlink" width="2048" zoomAndPan="magnify" viewBox="0 0 1536 1535.999932" height="2048" preserveAspectRatio="xMidYMid meet" version="1.0"><defs><clipPath id="b23d57a8bc"><path d="M 0 1530.53125 L 424.777344 1530.53125 L 424.777344 1536 L 0 1536 Z M 0 1530.53125 " clip-rule="nonzero"/></clipPath><clipPath id="1e91078687"><path d="M 23 626.421875 L 322 626.421875 L 322 909.921875 L 23 909.921875 Z M 23 626.421875 " clip-rule="nonzero"/></clipPath><clipPath id="040c011ca7"><path d="M 321 626.421875 L 620 626.421875 L 620 909.921875 L 321 909.921875 Z M 321 626.421875 " clip-rule="nonzero"/></clipPath><clipPath id="354f26ebc7"><path d="M 619 626.421875 L 917 626.421875 L 917 909.921875 L 619 909.921875 Z M 619 626.421875 " clip-rule="nonzero"/></clipPath><clipPath id="9e029158f9"><path d="M 916 626.421875 L 1215 626.421875 L 1215 909.921875 L 916 909.921875 Z M 916 626.421875 " clip-rule="nonzero"/></clipPath><clipPath id="b2fbf7055f"><path d="M 1214 626.421875 L 1513 626.421875 L 1513 909.921875 L 1214 909.921875 Z M 1214 626.421875 " clip-rule="nonzero"/></clipPath><clipPath id="0e2c78b5bb"><path d="M 1363 626.421875 L 1512.632812 626.421875 L 1512.632812 909.921875 L 1363 909.921875 Z M 1363 626.421875 " clip-rule="nonzero"/></clipPath><clipPath id="be8feebdcf"><path d="M 1363.5 626.40625 L 1398.648438 734.707031 L 1512.378906 734.707031 L 1420.367188 801.640625 L 1455.511719 909.9375 L 1363.5 843.007812 L 1271.492188 909.9375 L 1306.636719 801.640625 L 1214.625 734.707031 L 1328.355469 734.707031 Z M 1363.5 626.40625 " clip-rule="evenodd"/></clipPath></defs><g clip-path="url(#b23d57a8bc)"><path fill="#000000" d="M 199.824219 1530.53125 C 149.308594 1530.53125 78.8125 1547.792969 33.488281 1604.179688 C -10.050781 1658.351562 -29.421875 1749.976562 -29.421875 1831.863281 C -29.421875 1905.039062 12.902344 1970.960938 49.964844 2025.515625 C 97.554688 2095.566406 147.3125 2144.84375 202.992188 2144.84375 C 257.734375 2144.84375 312.839844 2083.019531 356.417969 2015.292969 C 391.679688 1960.492188 424.390625 1897.054688 424.390625 1822.296875 C 424.390625 1745.386719 419.792969 1677.0625 382.128906 1623.671875 C 361.652344 1594.648438 337.625 1571.238281 306.898438 1555.847656 C 271.324219 1538.023438 228.515625 1530.53125 199.824219 1530.53125 Z M 3.933594 1850.640625 C 166.539062 1879.632812 170.300781 2005.410156 175.265625 2006.894531 C 172.671875 2006.96875 24.246094 2010.59375 3.933594 1850.640625 Z M 393.8125 1851.433594 C 349.164062 2009.976562 224.230469 2001.945312 221.574219 2006.65625 C 221.570312 2006.6875 221.535156 2006.933594 221.535156 2006.933594 C 221.496094 2006.835938 221.523438 2006.746094 221.574219 2006.65625 C 221.785156 2003.632812 232.898438 1855.976562 393.8125 1851.433594 Z M 393.8125 1851.433594 " fill-opacity="1" fill-rule="nonzero"/></g><g clip-path="url(#1e91078687)"><path fill="#ffc500" d="M 172.449219 626.40625 L 207.59375 734.707031 L 321.324219 734.707031 L 229.3125 801.640625 L 264.457031 909.9375 L 172.449219 843.007812 L 80.4375 909.9375 L 115.582031 801.640625 L 23.570312 734.707031 L 137.300781 734.707031 Z M 172.449219 626.40625 " fill-opacity="1" fill-rule="evenodd"/></g><g clip-path="url(#040c011ca7)"><path fill="#ffc500" d="M 470.257812 626.40625 L 505.402344 734.707031 L 619.132812 734.707031 L 527.125 801.640625 L 562.269531 909.9375 L 470.257812 843.007812 L 378.246094 909.9375 L 413.390625 801.640625 L 321.382812 734.707031 L 435.113281 734.707031 Z M 470.257812 626.40625 " fill-opacity="1" fill-rule="evenodd"/></g><g clip-path="url(#354f26ebc7)"><path fill="#ffc500" d="M 767.972656 626.40625 L 803.121094 734.707031 L 916.851562 734.707031 L 824.839844 801.640625 L 859.984375 909.9375 L 767.972656 843.007812 L 675.964844 909.9375 L 711.109375 801.640625 L 619.097656 734.707031 L 732.828125 734.707031 Z M 767.972656 626.40625 " fill-opacity="1" fill-rule="evenodd"/></g><g clip-path="url(#9e029158f9)"><path fill="#ffc500" d="M 1065.691406 626.40625 L 1100.835938 734.707031 L 1214.566406 734.707031 L 1122.558594 801.640625 L 1157.703125 909.9375 L 1065.691406 843.007812 L 973.679688 909.9375 L 1008.824219 801.640625 L 916.816406 734.707031 L 1030.546875 734.707031 Z M 1065.691406 626.40625 " fill-opacity="1" fill-rule="evenodd"/></g><g clip-path="url(#b2fbf7055f)"><path fill="#ffc500" d="M 1363.5 626.40625 L 1398.648438 734.707031 L 1512.378906 734.707031 L 1420.367188 801.640625 L 1455.511719 909.9375 L 1363.5 843.007812 L 1271.492188 909.9375 L 1306.636719 801.640625 L 1214.625 734.707031 L 1328.355469 734.707031 Z M 1363.5 626.40625 " fill-opacity="1" fill-rule="evenodd"/></g><g clip-path="url(#0e2c78b5bb)"><g clip-path="url(#be8feebdcf)"><path fill="#ebebeb" d="M 1363.179688 532.585938 L 1522.632812 532.585938 L 1522.632812 964.488281 L 1363.179688 964.488281 Z M 1363.179688 532.585938 " fill-opacity="1" fill-rule="evenodd"/></g></g></svg>