<svg xmlns="http://www.w3.org/2000/svg" xmlns:xlink="http://www.w3.org/1999/xlink" width="2048" zoomAndPan="magnify" viewBox="0 0 1536 1535.999932" height="2048" preserveAspectRatio="xMidYMid meet" version="1.0"><defs><clipPath id="76eda27d30"><path d="M 0 1530.53125 L 424.777344 1530.53125 L 424.777344 1536 L 0 1536 Z M 0 1530.53125 " clip-rule="nonzero"/></clipPath><clipPath id="6025b869f4"><path d="M 52 631.957031 L 339 631.957031 L 339 904.207031 L 52 904.207031 Z M 52 631.957031 " clip-rule="nonzero"/></clipPath><clipPath id="5572b9db2c"><path d="M 338 631.957031 L 625 631.957031 L 625 904.207031 L 338 904.207031 Z M 338 631.957031 " clip-rule="nonzero"/></clipPath><clipPath id="71eadc771c"><path d="M 624 631.957031 L 911 631.957031 L 911 904.207031 L 624 904.207031 Z M 624 631.957031 " clip-rule="nonzero"/></clipPath><clipPath id="a2c9348e45"><path d="M 910 631.957031 L 1197 631.957031 L 1197 904.207031 L 910 904.207031 Z M 910 631.957031 " clip-rule="nonzero"/></clipPath><clipPath id="1e2a6b3619"><path d="M 1197 631.957031 L 1483.742188 631.957031 L 1483.742188 904.207031 L 1197 904.207031 Z M 1197 631.957031 " clip-rule="nonzero"/></clipPath></defs><g clip-path="url(#76eda27d30)"><path fill="#000000" d="M 199.824219 1530.53125 C 149.308594 1530.53125 78.8125 1547.792969 33.488281 1604.179688 C -10.050781 1658.351562 -29.421875 1749.976562 -29.421875 1831.863281 C -29.421875 1905.039062 12.902344 1970.960938 49.964844 2025.515625 C 97.554688 2095.566406 147.3125 2144.84375 202.992188 2144.84375 C 257.734375 2144.84375 312.839844 2083.019531 356.417969 2015.292969 C 391.679688 1960.492188 424.390625 1897.054688 424.390625 1822.296875 C 424.390625 1745.386719 419.792969 1677.0625 382.128906 1623.671875 C 361.652344 1594.648438 337.625 1571.238281 306.898438 1555.847656 C 271.324219 1538.023438 228.515625 1530.53125 199.824219 1530.53125 Z M 3.933594 1850.640625 C 166.539062 1879.632812 170.300781 2005.410156 175.265625 2006.894531 C 172.671875 2006.96875 24.246094 2010.59375 3.933594 1850.640625 Z M 393.8125 1851.433594 C 349.164062 2009.976562 224.230469 2001.945312 221.574219 2006.65625 C 221.570312 2006.6875 221.535156 2006.933594 221.535156 2006.933594 C 221.496094 2006.835938 221.523438 2006.746094 221.574219 2006.65625 C 221.785156 2003.632812 232.898438 1855.976562 393.8125 1851.433594 Z M 393.8125 1851.433594 " fill-opacity="1" fill-rule="nonzero"/></g><g clip-path="url(#6025b869f4)"><path fill="#ffc500" d="M 195.777344 631.980469 L 229.542969 735.984375 L 338.808594 735.984375 L 250.410156 800.261719 L 284.175781 904.261719 L 195.777344 839.988281 L 107.382812 904.261719 L 141.144531 800.261719 L 52.75 735.984375 L 162.015625 735.984375 Z M 195.777344 631.980469 " fill-opacity="1" fill-rule="evenodd"/></g><g clip-path="url(#5572b9db2c)"><path fill="#ffc500" d="M 481.894531 631.980469 L 515.660156 735.984375 L 624.921875 735.984375 L 536.527344 800.261719 L 570.289062 904.261719 L 481.894531 839.988281 L 393.496094 904.261719 L 427.261719 800.261719 L 338.863281 735.984375 L 448.128906 735.984375 Z M 481.894531 631.980469 " fill-opacity="1" fill-rule="evenodd"/></g><g clip-path="url(#71eadc771c)"><path fill="#ffc500" d="M 767.917969 631.980469 L 801.683594 735.984375 L 910.949219 735.984375 L 822.550781 800.261719 L 856.316406 904.261719 L 767.917969 839.988281 L 679.523438 904.261719 L 713.289062 800.261719 L 624.890625 735.984375 L 734.15625 735.984375 Z M 767.917969 631.980469 " fill-opacity="1" fill-rule="evenodd"/></g><g clip-path="url(#a2c9348e45)"><path fill="#ffc500" d="M 1053.945312 631.980469 L 1087.710938 735.984375 L 1196.976562 735.984375 L 1108.578125 800.261719 L 1142.34375 904.261719 L 1053.945312 839.988281 L 965.546875 904.261719 L 999.3125 800.261719 L 910.917969 735.984375 L 1020.179688 735.984375 Z M 1053.945312 631.980469 " fill-opacity="1" fill-rule="evenodd"/></g><g clip-path="url(#1e2a6b3619)"><path fill="#ffc500" d="M 1340.0625 631.980469 L 1373.828125 735.984375 L 1483.089844 735.984375 L 1394.695312 800.261719 L 1428.457031 904.261719 L 1340.0625 839.988281 L 1251.664062 904.261719 L 1285.429688 800.261719 L 1197.03125 735.984375 L 1306.296875 735.984375 Z M 1340.0625 631.980469 " fill-opacity="1" fill-rule="evenodd"/></g></svg>