<svg xmlns="http://www.w3.org/2000/svg" xmlns:xlink="http://www.w3.org/1999/xlink" width="2048" zoomAndPan="magnify" viewBox="0 0 1536 1535.999932" height="2048" preserveAspectRatio="xMidYMid meet" version="1.0"><defs><clipPath id="31e94833d0"><path d="M 0 1530.53125 L 424.777344 1530.53125 L 424.777344 1536 L 0 1536 Z M 0 1530.53125 " clip-rule="nonzero"/></clipPath><clipPath id="e3e43ca188"><path d="M 76.800781 643.007812 L 324 643.007812 L 324 892.757812 L 76.800781 892.757812 Z M 76.800781 643.007812 " clip-rule="nonzero"/></clipPath><clipPath id="5080bd225b"><path d="M 349 643.007812 L 597 643.007812 L 597 892.757812 L 349 892.757812 Z M 349 643.007812 " clip-rule="nonzero"/></clipPath><clipPath id="ab1e6cfae8"><path d="M 628 643.007812 L 876 643.007812 L 876 892.757812 L 628 892.757812 Z M 628 643.007812 " clip-rule="nonzero"/></clipPath><clipPath id="e7e71aa56a"><path d="M 920 643.007812 L 1168 643.007812 L 1168 892.757812 L 920 892.757812 Z M 920 643.007812 " clip-rule="nonzero"/></clipPath><clipPath id="b0f005a645"><path d="M 1212 643.007812 L 1459.050781 643.007812 L 1459.050781 892.757812 L 1212 892.757812 Z M 1212 643.007812 " clip-rule="nonzero"/></clipPath></defs><g clip-path="url(#31e94833d0)"><path fill="#000000" d="M 199.824219 1530.53125 C 149.308594 1530.53125 78.8125 1547.792969 33.488281 1604.179688 C -10.050781 1658.351562 -29.421875 1749.976562 -29.421875 1831.863281 C -29.421875 1905.039062 12.902344 1970.960938 49.964844 2025.515625 C 97.554688 2095.566406 147.3125 2144.84375 202.992188 2144.84375 C 257.734375 2144.84375 312.839844 2083.019531 356.417969 2015.292969 C 391.679688 1960.492188 424.390625 1897.054688 424.390625 1822.296875 C 424.390625 1745.386719 419.792969 1677.0625 382.128906 1623.671875 C 361.652344 1594.648438 337.625 1571.238281 306.898438 1555.847656 C 271.324219 1538.023438 228.515625 1530.53125 199.824219 1530.53125 Z M 3.933594 1850.640625 C 166.539062 1879.632812 170.300781 2005.410156 175.265625 2006.894531 C 172.671875 2006.96875 24.246094 2010.59375 3.933594 1850.640625 Z M 393.8125 1851.433594 C 349.164062 2009.976562 224.230469 2001.945312 221.574219 2006.65625 C 221.570312 2006.6875 221.535156 2006.933594 221.535156 2006.933594 C 221.496094 2006.835938 221.523438 2006.746094 221.574219 2006.65625 C 221.785156 2003.632812 232.898438 1855.976562 393.8125 1851.433594 Z M 393.8125 1851.433594 " fill-opacity="1" fill-rule="nonzero"/></g><g clip-path="url(#e3e43ca188)"><path fill="#fcd415" d="M 200.277344 643.292969 L 229.414062 738.472656 L 323.703125 738.472656 L 247.421875 797.289062 L 276.558594 892.472656 L 200.277344 833.652344 L 123.996094 892.472656 L 153.132812 797.289062 L 76.851562 738.472656 L 171.140625 738.472656 Z M 200.277344 643.292969 " fill-opacity="1" fill-rule="evenodd"/></g><g clip-path="url(#5080bd225b)"><path fill="#fcd415" d="M 472.625 643.292969 L 501.761719 738.472656 L 596.050781 738.472656 L 519.769531 797.289062 L 548.90625 892.472656 L 472.625 833.652344 L 396.34375 892.472656 L 425.480469 797.289062 L 349.199219 738.472656 L 443.488281 738.472656 Z M 472.625 643.292969 " fill-opacity="1" fill-rule="evenodd"/></g><g clip-path="url(#ab1e6cfae8)"><path fill="#fcd415" d="M 751.683594 643.292969 L 780.820312 738.472656 L 875.109375 738.472656 L 798.828125 797.289062 L 827.96875 892.472656 L 751.683594 833.652344 L 675.402344 892.472656 L 704.539062 797.289062 L 628.257812 738.472656 L 722.546875 738.472656 Z M 751.683594 643.292969 " fill-opacity="1" fill-rule="evenodd"/></g><g clip-path="url(#e7e71aa56a)"><path fill="#d8d8d8" d="M 1043.75 643.292969 L 1072.886719 738.472656 L 1167.179688 738.472656 L 1090.894531 797.289062 L 1120.035156 892.472656 L 1043.75 833.652344 L 967.46875 892.472656 L 996.605469 797.289062 L 920.324219 738.472656 L 1014.613281 738.472656 Z M 1043.75 643.292969 " fill-opacity="1" fill-rule="evenodd"/></g><g clip-path="url(#b0f005a645)"><path fill="#d8d8d8" d="M 1335.621094 643.292969 L 1364.761719 738.472656 L 1459.050781 738.472656 L 1382.769531 797.289062 L 1411.90625 892.472656 L 1335.621094 833.652344 L 1259.339844 892.472656 L 1288.480469 797.289062 L 1212.195312 738.472656 L 1306.488281 738.472656 Z M 1335.621094 643.292969 " fill-opacity="1" fill-rule="evenodd"/></g></svg>