<svg xmlns="http://www.w3.org/2000/svg" xmlns:xlink="http://www.w3.org/1999/xlink" width="2048" zoomAndPan="magnify" viewBox="0 0 1536 1535.999932" height="2048" preserveAspectRatio="xMidYMid meet" version="1.0"><defs><clipPath id="1966b83f6f"><path d="M 0 1530.53125 L 424.777344 1530.53125 L 424.777344 1536 L 0 1536 Z M 0 1530.53125 " clip-rule="nonzero"/></clipPath><clipPath id="c353d936d5"><path d="M 23.097656 626.46875 L 322 626.46875 L 322 909.21875 L 23.097656 909.21875 Z M 23.097656 626.46875 " clip-rule="nonzero"/></clipPath><clipPath id="84b90e5b81"><path d="M 321 626.46875 L 620 626.46875 L 620 909.21875 L 321 909.21875 Z M 321 626.46875 " clip-rule="nonzero"/></clipPath><clipPath id="d7b2f8abfe"><path d="M 619 626.46875 L 917 626.46875 L 917 909.21875 L 619 909.21875 Z M 619 626.46875 " clip-rule="nonzero"/></clipPath><clipPath id="6a78813f01"><path d="M 916 626.46875 L 1215 626.46875 L 1215 909.21875 L 916 909.21875 Z M 916 626.46875 " clip-rule="nonzero"/></clipPath><clipPath id="b3e2237de6"><path d="M 1214 626.46875 L 1512 626.46875 L 1512 909.21875 L 1214 909.21875 Z M 1214 626.46875 " clip-rule="nonzero"/></clipPath></defs><g clip-path="url(#1966b83f6f)"><path fill="#000000" d="M 199.824219 1530.53125 C 149.308594 1530.53125 78.8125 1547.792969 33.488281 1604.179688 C -10.050781 1658.351562 -29.421875 1749.976562 -29.421875 1831.863281 C -29.421875 1905.039062 12.902344 1970.960938 49.964844 2025.515625 C 97.554688 2095.566406 147.3125 2144.84375 202.992188 2144.84375 C 257.734375 2144.84375 312.839844 2083.019531 356.417969 2015.292969 C 391.679688 1960.492188 424.390625 1897.054688 424.390625 1822.296875 C 424.390625 1745.386719 419.792969 1677.0625 382.128906 1623.671875 C 361.652344 1594.648438 337.625 1571.238281 306.898438 1555.847656 C 271.324219 1538.023438 228.515625 1530.53125 199.824219 1530.53125 Z M 3.933594 1850.640625 C 166.539062 1879.632812 170.300781 2005.410156 175.265625 2006.894531 C 172.671875 2006.96875 24.246094 2010.59375 3.933594 1850.640625 Z M 393.8125 1851.433594 C 349.164062 2009.976562 224.230469 2001.945312 221.574219 2006.65625 C 221.570312 2006.6875 221.535156 2006.933594 221.535156 2006.933594 C 221.496094 2006.835938 221.523438 2006.746094 221.574219 2006.65625 C 221.785156 2003.632812 232.898438 1855.976562 393.8125 1851.433594 Z M 393.8125 1851.433594 " fill-opacity="1" fill-rule="nonzero"/></g><g clip-path="url(#c353d936d5)"><path fill="#ffc500" d="M 172.667969 626.5 L 207.796875 734.515625 L 321.46875 734.515625 L 229.503906 801.269531 L 264.632812 909.285156 L 172.667969 842.527344 L 80.707031 909.285156 L 115.832031 801.269531 L 23.871094 734.515625 L 137.542969 734.515625 Z M 172.667969 626.5 " fill-opacity="1" fill-rule="evenodd"/></g><g clip-path="url(#84b90e5b81)"><path fill="#ebebeb" d="M 470.261719 626.5 L 505.390625 734.515625 L 619.0625 734.515625 L 527.097656 801.269531 L 562.222656 909.285156 L 470.261719 842.527344 L 378.296875 909.285156 L 413.425781 801.269531 L 321.460938 734.515625 L 435.132812 734.515625 Z M 470.261719 626.5 " fill-opacity="1" fill-rule="evenodd"/></g><g clip-path="url(#d7b2f8abfe)"><path fill="#ebebeb" d="M 767.863281 626.5 L 802.992188 734.515625 L 916.664062 734.515625 L 824.699219 801.269531 L 859.824219 909.285156 L 767.863281 842.527344 L 675.898438 909.285156 L 711.027344 801.269531 L 619.0625 734.515625 L 732.738281 734.515625 Z M 767.863281 626.5 " fill-opacity="1" fill-rule="evenodd"/></g><g clip-path="url(#6a78813f01)"><path fill="#ebebeb" d="M 1065.457031 626.5 L 1100.582031 734.515625 L 1214.253906 734.515625 L 1122.292969 801.269531 L 1157.417969 909.285156 L 1065.457031 842.527344 L 973.492188 909.285156 L 1008.621094 801.269531 L 916.65625 734.515625 L 1030.328125 734.515625 Z M 1065.457031 626.5 " fill-opacity="1" fill-rule="evenodd"/></g><g clip-path="url(#b3e2237de6)"><path fill="#ebebeb" d="M 1363.058594 626.5 L 1398.183594 734.515625 L 1511.855469 734.515625 L 1419.894531 801.269531 L 1455.019531 909.285156 L 1363.058594 842.527344 L 1271.09375 909.285156 L 1306.222656 801.269531 L 1214.257812 734.515625 L 1327.929688 734.515625 Z M 1363.058594 626.5 " fill-opacity="1" fill-rule="evenodd"/></g></svg>