<svg xmlns="http://www.w3.org/2000/svg" xmlns:xlink="http://www.w3.org/1999/xlink" width="2048" zoomAndPan="magnify" viewBox="0 0 1536 1535.999932" height="2048" preserveAspectRatio="xMidYMid meet" version="1.0"><defs><clipPath id="b9eadea551"><path d="M 0 1530.53125 L 424.777344 1530.53125 L 424.777344 1536 L 0 1536 Z M 0 1530.53125 " clip-rule="nonzero"/></clipPath><clipPath id="3a6619749d"><path d="M 63 633.960938 L 346 633.960938 L 346 901.710938 L 63 901.710938 Z M 63 633.960938 " clip-rule="nonzero"/></clipPath><clipPath id="de7bb99919"><path d="M 345 633.960938 L 627 633.960938 L 627 901.710938 L 345 901.710938 Z M 345 633.960938 " clip-rule="nonzero"/></clipPath><clipPath id="d4a3e52872"><path d="M 626 633.960938 L 909 633.960938 L 909 901.710938 L 626 901.710938 Z M 626 633.960938 " clip-rule="nonzero"/></clipPath><clipPath id="48134eeb8a"><path d="M 908 633.960938 L 1191 633.960938 L 1191 901.710938 L 908 901.710938 Z M 908 633.960938 " clip-rule="nonzero"/></clipPath><clipPath id="0e70baa316"><path d="M 1190 633.960938 L 1473 633.960938 L 1473 901.710938 L 1190 901.710938 Z M 1190 633.960938 " clip-rule="nonzero"/></clipPath></defs><g clip-path="url(#b9eadea551)"><path fill="#000000" d="M 199.824219 1530.53125 C 149.308594 1530.53125 78.8125 1547.792969 33.488281 1604.179688 C -10.050781 1658.351562 -29.421875 1749.976562 -29.421875 1831.863281 C -29.421875 1905.039062 12.902344 1970.960938 49.964844 2025.515625 C 97.554688 2095.566406 147.3125 2144.84375 202.992188 2144.84375 C 257.734375 2144.84375 312.839844 2083.019531 356.417969 2015.292969 C 391.679688 1960.492188 424.390625 1897.054688 424.390625 1822.296875 C 424.390625 1745.386719 419.792969 1677.0625 382.128906 1623.671875 C 361.652344 1594.648438 337.625 1571.238281 306.898438 1555.847656 C 271.324219 1538.023438 228.515625 1530.53125 199.824219 1530.53125 Z M 3.933594 1850.640625 C 166.539062 1879.632812 170.300781 2005.410156 175.265625 2006.894531 C 172.671875 2006.96875 24.246094 2010.59375 3.933594 1850.640625 Z M 393.8125 1851.433594 C 349.164062 2009.976562 224.230469 2001.945312 221.574219 2006.65625 C 221.570312 2006.6875 221.535156 2006.933594 221.535156 2006.933594 C 221.496094 2006.835938 221.523438 2006.746094 221.574219 2006.65625 C 221.785156 2003.632812 232.898438 1855.976562 393.8125 1851.433594 Z M 393.8125 1851.433594 " fill-opacity="1" fill-rule="nonzero"/></g><g clip-path="url(#3a6619749d)"><path fill="#ffc500" d="M 204.136719 633.980469 L 237.40625 736.265625 L 345.070312 736.265625 L 257.96875 799.480469 L 291.238281 901.761719 L 204.136719 838.550781 L 117.035156 901.761719 L 150.304688 799.480469 L 63.203125 736.265625 L 170.867188 736.265625 Z M 204.136719 633.980469 " fill-opacity="1" fill-rule="evenodd"/></g><g clip-path="url(#de7bb99919)"><path fill="#ffc500" d="M 486.007812 633.980469 L 519.277344 736.265625 L 626.941406 736.265625 L 539.839844 799.480469 L 573.109375 901.761719 L 486.007812 838.550781 L 398.90625 901.761719 L 432.175781 799.480469 L 345.074219 736.265625 L 452.738281 736.265625 Z M 486.007812 633.980469 " fill-opacity="1" fill-rule="evenodd"/></g><g clip-path="url(#d4a3e52872)"><path fill="#ffc500" d="M 767.878906 633.980469 L 801.148438 736.265625 L 908.8125 736.265625 L 821.710938 799.480469 L 854.980469 901.761719 L 767.878906 838.550781 L 680.777344 901.761719 L 714.046875 799.480469 L 626.945312 736.265625 L 734.609375 736.265625 Z M 767.878906 633.980469 " fill-opacity="1" fill-rule="evenodd"/></g><g clip-path="url(#48134eeb8a)"><path fill="#ffc500" d="M 1049.742188 633.980469 L 1083.011719 736.265625 L 1190.675781 736.265625 L 1103.574219 799.480469 L 1136.84375 901.761719 L 1049.742188 838.550781 L 962.640625 901.761719 L 995.910156 799.480469 L 908.808594 736.265625 L 1016.472656 736.265625 Z M 1049.742188 633.980469 " fill-opacity="1" fill-rule="evenodd"/></g><g clip-path="url(#0e70baa316)"><path fill="#ebebeb" d="M 1331.621094 633.980469 L 1364.890625 736.265625 L 1472.554688 736.265625 L 1385.453125 799.480469 L 1418.722656 901.761719 L 1331.621094 838.550781 L 1244.519531 901.761719 L 1277.789062 799.480469 L 1190.6875 736.265625 L 1298.351562 736.265625 Z M 1331.621094 633.980469 " fill-opacity="1" fill-rule="evenodd"/></g></svg>