<svg xmlns="http://www.w3.org/2000/svg" xmlns:xlink="http://www.w3.org/1999/xlink" width="2048" zoomAndPan="magnify" viewBox="0 0 1536 1535.999932" height="2048" preserveAspectRatio="xMidYMid meet" version="1.0"><defs><clipPath id="6b50918d40"><path d="M 0 1530.53125 L 424.777344 1530.53125 L 424.777344 1536 L 0 1536 Z M 0 1530.53125 " clip-rule="nonzero"/></clipPath><clipPath id="ba7f6584b5"><path d="M 72.234375 635.804688 L 351 635.804688 L 351 900.554688 L 72.234375 900.554688 Z M 72.234375 635.804688 " clip-rule="nonzero"/></clipPath><clipPath id="4f07d79ea0"><path d="M 350 635.804688 L 629 635.804688 L 629 900.554688 L 350 900.554688 Z M 350 635.804688 " clip-rule="nonzero"/></clipPath><clipPath id="36b93485af"><path d="M 906 635.804688 L 1185 635.804688 L 1185 900.554688 L 906 900.554688 Z M 906 635.804688 " clip-rule="nonzero"/></clipPath><clipPath id="d14c340e4f"><path d="M 1184 635.804688 L 1463 635.804688 L 1463 900.554688 L 1184 900.554688 Z M 1184 635.804688 " clip-rule="nonzero"/></clipPath><clipPath id="19fba008d0"><path d="M 628 635.804688 L 907 635.804688 L 907 900.554688 L 628 900.554688 Z M 628 635.804688 " clip-rule="nonzero"/></clipPath><clipPath id="65dda32891"><path d="M 767 635.804688 L 907 635.804688 L 907 900.554688 L 767 900.554688 Z M 767 635.804688 " clip-rule="nonzero"/></clipPath><clipPath id="24e7d7519f"><path d="M 767.847656 635.789062 L 800.660156 736.925781 L 906.832031 736.925781 L 820.933594 799.429688 L 853.746094 900.570312 L 767.847656 838.0625 L 681.949219 900.570312 L 714.761719 799.429688 L 628.863281 736.925781 L 735.039062 736.925781 Z M 767.847656 635.789062 " clip-rule="evenodd"/></clipPath></defs><g clip-path="url(#6b50918d40)"><path fill="#000000" d="M 199.824219 1530.53125 C 149.308594 1530.53125 78.8125 1547.792969 33.488281 1604.179688 C -10.050781 1658.351562 -29.421875 1749.976562 -29.421875 1831.863281 C -29.421875 1905.039062 12.902344 1970.960938 49.964844 2025.515625 C 97.554688 2095.566406 147.3125 2144.84375 202.992188 2144.84375 C 257.734375 2144.84375 312.839844 2083.019531 356.417969 2015.292969 C 391.679688 1960.492188 424.390625 1897.054688 424.390625 1822.296875 C 424.390625 1745.386719 419.792969 1677.0625 382.128906 1623.671875 C 361.652344 1594.648438 337.625 1571.238281 306.898438 1555.847656 C 271.324219 1538.023438 228.515625 1530.53125 199.824219 1530.53125 Z M 3.933594 1850.640625 C 166.539062 1879.632812 170.300781 2005.410156 175.265625 2006.894531 C 172.671875 2006.96875 24.246094 2010.59375 3.933594 1850.640625 Z M 393.8125 1851.433594 C 349.164062 2009.976562 224.230469 2001.945312 221.574219 2006.65625 C 221.570312 2006.6875 221.535156 2006.933594 221.535156 2006.933594 C 221.496094 2006.835938 221.523438 2006.746094 221.574219 2006.65625 C 221.785156 2003.632812 232.898438 1855.976562 393.8125 1851.433594 Z M 393.8125 1851.433594 " fill-opacity="1" fill-rule="nonzero"/></g><g clip-path="url(#ba7f6584b5)"><path fill="#ffc500" d="M 211.882812 635.789062 L 244.695312 736.925781 L 350.871094 736.925781 L 264.972656 799.429688 L 297.78125 900.570312 L 211.882812 838.0625 L 125.988281 900.570312 L 158.796875 799.429688 L 72.898438 736.925781 L 179.074219 736.925781 Z M 211.882812 635.789062 " fill-opacity="1" fill-rule="evenodd"/></g><g clip-path="url(#4f07d79ea0)"><path fill="#ffc500" d="M 489.910156 635.789062 L 522.71875 736.925781 L 628.894531 736.925781 L 542.996094 799.429688 L 575.808594 900.570312 L 489.910156 838.0625 L 404.011719 900.570312 L 436.824219 799.429688 L 350.925781 736.925781 L 457.101562 736.925781 Z M 489.910156 635.789062 " fill-opacity="1" fill-rule="evenodd"/></g><g clip-path="url(#36b93485af)"><path fill="#ebebeb" d="M 1045.785156 635.789062 L 1078.597656 736.925781 L 1184.769531 736.925781 L 1098.875 799.429688 L 1131.683594 900.570312 L 1045.785156 838.0625 L 959.886719 900.570312 L 992.699219 799.429688 L 906.800781 736.925781 L 1012.976562 736.925781 Z M 1045.785156 635.789062 " fill-opacity="1" fill-rule="evenodd"/></g><g clip-path="url(#d14c340e4f)"><path fill="#ebebeb" d="M 1323.8125 635.789062 L 1356.621094 736.925781 L 1462.796875 736.925781 L 1376.898438 799.429688 L 1409.707031 900.570312 L 1323.8125 838.0625 L 1237.914062 900.570312 L 1270.722656 799.429688 L 1184.824219 736.925781 L 1291 736.925781 Z M 1323.8125 635.789062 " fill-opacity="1" fill-rule="evenodd"/></g><g clip-path="url(#19fba008d0)"><path fill="#ffc500" d="M 767.847656 635.789062 L 800.660156 736.925781 L 906.832031 736.925781 L 820.9375 799.429688 L 853.746094 900.570312 L 767.847656 838.0625 L 681.949219 900.570312 L 714.761719 799.429688 L 628.863281 736.925781 L 735.039062 736.925781 Z M 767.847656 635.789062 " fill-opacity="1" fill-rule="evenodd"/></g><g clip-path="url(#65dda32891)"><g clip-path="url(#24e7d7519f)"><path fill="#ebebeb" d="M 767.546875 548.171875 L 916.40625 548.171875 L 916.40625 951.511719 L 767.546875 951.511719 Z M 767.546875 548.171875 " fill-opacity="1" fill-rule="evenodd"/></g></g></svg>