<svg xmlns="http://www.w3.org/2000/svg" xmlns:xlink="http://www.w3.org/1999/xlink" width="2048" zoomAndPan="magnify" viewBox="0 0 1536 1535.999932" height="2048" preserveAspectRatio="xMidYMid meet" version="1.0"><defs><clipPath id="776c567f90"><path d="M 0 1532.109375 L 399 1532.109375 L 399 1536 L 0 1536 Z M 0 1532.109375 " clip-rule="nonzero"/></clipPath></defs><g clip-path="url(#776c567f90)"><path fill="#000000" d="M 385.339844 2041.230469 L 268.425781 1924.285156 L 244.238281 1900.089844 C 241.632812 1897.484375 237.019531 1897.484375 234.414062 1900.089844 L 230.734375 1903.773438 C 230.390625 1902.964844 229.914062 1902.203125 229.253906 1901.542969 L 199.484375 1871.75 C 225.871094 1835.484375 240.144531 1791.925781 240.144531 1746.113281 C 240.144531 1688.886719 217.929688 1635.136719 177.574219 1594.78125 C 137.226562 1554.429688 83.503906 1532.207031 26.300781 1532.207031 C -30.90625 1532.207031 -84.640625 1554.4375 -124.992188 1594.796875 C -208.402344 1678.234375 -208.402344 1814.003906 -124.992188 1897.457031 C -84.636719 1937.808594 -30.90625 1960.03125 26.296875 1960.03125 C 72.097656 1960.03125 115.640625 1945.75 151.898438 1919.359375 L 181.671875 1949.15625 C 182.332031 1949.816406 183.089844 1950.296875 183.894531 1950.636719 L 180.25 1954.292969 C 177.53125 1957.007812 177.53125 1961.402344 180.25 1964.117188 L 205.367188 1989.253906 L 321.328125 2105.265625 C 329.875 2113.820312 341.246094 2118.53125 353.335938 2118.53125 C 365.421875 2118.53125 376.792969 2113.820312 385.339844 2105.265625 C 402.984375 2087.59375 402.984375 2058.875 385.339844 2041.230469 Z M -115.179688 1887.617188 C -193.175781 1809.585938 -193.175781 1682.632812 -115.179688 1604.609375 C -77.453125 1566.875 -27.210938 1546.089844 26.289062 1546.089844 C 79.78125 1546.089844 130.019531 1566.867188 167.738281 1604.59375 C 205.464844 1642.328125 226.238281 1692.582031 226.238281 1746.097656 C 226.238281 1799.613281 205.464844 1849.867188 167.738281 1887.59375 C 130.015625 1925.328125 79.78125 1946.105469 26.28125 1946.105469 C -27.203125 1946.121094 -77.453125 1925.339844 -115.179688 1887.617188 Z M 191.488281 1939.316406 L 162.945312 1910.75 C 167.988281 1906.550781 172.878906 1902.132812 177.566406 1897.433594 C 182.257812 1892.738281 186.6875 1887.84375 190.882812 1882.804688 L 219.421875 1911.367188 C 220.082031 1912.027344 220.839844 1912.515625 221.652344 1912.847656 L 192.960938 1941.546875 C 192.628906 1940.742188 192.148438 1939.976562 191.488281 1939.316406 Z M 239.328125 1914.828125 L 253.839844 1929.34375 L 210.128906 1974.351562 L 194.976562 1959.191406 Z M 375.515625 2095.433594 C 369.582031 2101.359375 361.710938 2104.628906 353.335938 2104.628906 C 344.957031 2104.628906 337.078125 2101.359375 331.152344 2095.433594 L 219.957031 1984.179688 L 263.667969 1939.164062 L 375.523438 2051.058594 C 387.742188 2063.289062 387.742188 2083.191406 375.515625 2095.433594 Z M 375.515625 2095.433594 " fill-opacity="1" fill-rule="nonzero"/></g><path fill="#000000" d="M 130.652344 1229.058594 C 118.84375 1229.058594 109.300781 1219.492188 109.300781 1207.707031 L 109.300781 345.6875 C 109.300781 280.832031 162.058594 228.082031 226.902344 228.082031 L 536.425781 228.082031 C 595.714844 228.082031 644.90625 272.226562 652.871094 329.371094 L 1180.363281 329.371094 C 1252.167969 329.371094 1310.582031 387.820312 1310.582031 459.679688 L 1310.582031 608.203125 C 1310.582031 619.992188 1301.039062 629.558594 1289.230469 629.558594 C 1277.425781 629.558594 1267.882812 619.992188 1267.882812 608.203125 L 1267.882812 459.679688 C 1267.882812 411.375 1228.617188 372.082031 1180.363281 372.082031 L 632.652344 372.082031 C 620.84375 372.082031 611.300781 362.515625 611.300781 350.726562 L 611.300781 345.6875 C 611.300781 304.386719 577.714844 270.792969 536.425781 270.792969 L 226.902344 270.792969 C 185.585938 270.792969 152.003906 304.386719 152.003906 345.6875 L 152.003906 1207.707031 C 152.003906 1219.515625 142.457031 1229.058594 130.652344 1229.058594 Z M 130.652344 1229.058594 " fill-opacity="1" fill-rule="nonzero"/><path fill="#000000" d="M 1208.226562 1308.054688 L 196.691406 1308.054688 C 169.105469 1308.054688 144.914062 1297.160156 128.558594 1277.34375 C 112.289062 1257.65625 105.949219 1230.8125 111.160156 1203.667969 L 211.679688 683.140625 C 221.992188 630.027344 274.042969 586.828125 327.699219 586.828125 L 1339.214844 586.828125 C 1366.84375 586.828125 1391.074219 597.761719 1407.429688 617.601562 C 1423.699219 637.3125 1430.019531 664.15625 1424.765625 691.234375 L 1324.246094 1211.742188 C 1313.933594 1264.871094 1261.902344 1308.054688 1208.226562 1308.054688 Z M 327.675781 629.558594 C 294.027344 629.558594 260.082031 657.832031 253.570312 691.277344 L 153.070312 1211.761719 C 150.25 1226.539062 153.21875 1240.1875 161.480469 1250.160156 C 169.574219 1259.960938 182.085938 1265.34375 196.691406 1265.34375 L 1208.226562 1265.34375 C 1241.898438 1265.34375 1275.824219 1237.089844 1282.3125 1203.648438 L 1382.832031 683.140625 C 1385.671875 668.402344 1382.707031 654.78125 1374.464844 644.808594 C 1366.351562 634.960938 1353.816406 629.558594 1339.191406 629.558594 Z M 327.675781 629.558594 " fill-opacity="1" fill-rule="nonzero"/><path fill="#000000" d="M 233.304688 705.496094 C 221.5 705.496094 211.957031 695.929688 211.957031 684.144531 L 211.957031 484.730469 C 211.957031 465.148438 227.863281 449.238281 247.417969 449.238281 L 1150.066406 449.238281 C 1169.582031 449.238281 1185.46875 465.167969 1185.46875 484.730469 L 1185.46875 608.226562 C 1185.46875 620.011719 1175.921875 629.582031 1164.117188 629.582031 C 1152.308594 629.582031 1142.765625 620.011719 1142.765625 608.226562 L 1142.765625 491.945312 L 254.65625 491.945312 L 254.65625 684.144531 C 254.65625 695.929688 245.113281 705.496094 233.304688 705.496094 Z M 233.304688 705.496094 " fill-opacity="1" fill-rule="nonzero"/></svg>